<svg width="512" height="570" viewBox="0 0 512 570" fill="none" xmlns="http://www.w3.org/2000/svg">
<path d="M267.828 332.539C265.808 332.539 264.171 330.902 264.171 328.882V259.714C264.171 256.595 267.824 254.907 270.199 256.929L305.748 287.194C307.103 288.348 309.092 288.359 310.459 287.22L346.99 256.793C349.372 254.809 352.987 256.503 352.987 259.603V328.882C352.987 330.902 351.35 332.539 349.33 332.539H341.911C339.891 332.539 338.254 330.902 338.254 328.882V294.465C338.254 291.371 334.652 289.675 332.267 291.646L310.455 309.674C309.089 310.804 307.108 310.79 305.757 309.641L284.791 291.82C282.416 289.801 278.765 291.489 278.765 294.606V328.882C278.765 330.902 277.128 332.539 275.108 332.539H267.828Z" fill="#2E2E2E"/>
<path d="M149.232 241.347V232.041L132.373 248.509L117.885 261.139L149.232 251.633V241.347Z" fill="white"/>
<path d="M187.11 310.409C187.11 306.802 184.186 303.879 180.579 303.879C176.972 303.879 174.048 306.802 174.048 310.409H187.11ZM117.885 261.139L113.594 256.216C111.273 258.239 110.681 261.609 112.172 264.302C113.664 266.996 116.834 268.282 119.78 267.388L117.885 261.139ZM132.373 248.509L136.665 253.431L136.804 253.31L136.936 253.18L132.373 248.509ZM164.906 326.083L164.887 319.553L164.906 326.083ZM155.763 169.938C155.763 163.534 160.047 155.596 168.618 149.721C176.995 143.978 188.948 140.656 202.883 143.276L205.296 130.439C187.937 127.176 172.461 131.251 161.233 138.948C150.199 146.512 142.702 158.056 142.702 169.938H155.763ZM149.232 247.877H196.253V234.816H149.232V247.877ZM155.763 241.347V232.041H142.702V241.347H155.763ZM155.763 232.041V169.938H142.702V232.041H155.763ZM155.763 310.409V251.633H142.702V310.409H155.763ZM155.763 251.633V241.347H142.702V251.633H155.763ZM119.78 267.388L151.127 257.883L147.337 245.384L115.99 254.889L119.78 267.388ZM144.669 227.37L127.81 243.837L136.936 253.18L153.795 236.713L144.669 227.37ZM128.082 243.586L113.594 256.216L122.177 266.061L136.665 253.431L128.082 243.586ZM174.048 310.409C174.048 314.242 172.597 316.258 171.013 317.483C169.169 318.91 166.715 319.548 164.887 319.553L164.924 332.614C169.142 332.602 174.525 331.281 179.006 327.813C183.748 324.145 187.11 318.333 187.11 310.409H174.048ZM164.887 319.553C162.989 319.558 160.666 318.583 158.698 316.597C156.723 314.604 155.763 312.255 155.763 310.409H142.702C142.702 316.401 145.566 321.9 149.421 325.791C153.283 329.688 158.797 332.631 164.924 332.614L164.887 319.553Z" fill="white"/>
<path d="M362.13 325.702C362.13 329.309 365.054 332.233 368.661 332.233C372.268 332.233 375.191 329.309 375.191 325.702H362.13ZM398.544 252.38C401.216 249.957 401.418 245.827 398.995 243.155C396.572 240.483 392.442 240.281 389.77 242.704L398.544 252.38ZM202.892 143.278C211.658 144.912 217.133 147.524 221.138 150.619C225.223 153.777 228.214 157.76 231.667 163.015L242.582 155.841C238.977 150.354 235.012 144.835 229.125 140.285C223.158 135.673 215.645 132.37 205.286 130.438L202.892 143.278ZM231.667 163.015C240.159 175.936 242.269 194.225 236.662 209.085C231.255 223.414 218.61 234.817 196.253 234.817V247.878C224.168 247.878 241.6 232.993 248.882 213.697C255.963 194.932 253.373 172.262 242.582 155.841L231.667 163.015ZM240.011 165.286C293.549 138.906 361.675 184.291 361.675 254.674H374.736C374.736 176.765 298.309 122 234.238 153.57L240.011 165.286ZM361.675 254.674C361.675 266.761 361.789 277.976 361.903 289.428C362.017 300.886 362.13 312.588 362.13 325.702H375.191C375.191 312.516 375.077 300.754 374.964 289.298C374.85 277.836 374.736 266.686 374.736 254.674H361.675ZM366.912 261.075C372.479 262.2 377.718 262.986 383.096 261.692C388.546 260.381 393.261 257.169 398.544 252.38L389.77 242.704C385.056 246.978 382.31 248.447 380.041 248.993C377.699 249.557 374.961 249.377 369.5 248.273L366.912 261.075Z" fill="#D71920"/>
<path d="M146.799 361.389V342.319H151.213L152.964 348.327C153.155 348.954 153.294 349.503 153.382 349.973C153.486 350.443 153.547 350.774 153.564 350.966C153.582 350.774 153.634 350.443 153.721 349.973C153.826 349.503 153.965 348.954 154.139 348.327L155.863 342.319H160.278V361.389H156.699V356.164C156.699 355.206 156.717 354.205 156.751 353.16C156.804 352.098 156.865 351.044 156.934 349.999C157.004 348.954 157.082 347.979 157.169 347.073C157.256 346.15 157.335 345.349 157.404 344.67L155.21 353.291H151.893L149.594 344.67C149.681 345.315 149.768 346.089 149.855 346.995C149.942 347.883 150.02 348.85 150.09 349.895C150.177 350.922 150.247 351.976 150.299 353.055C150.351 354.135 150.377 355.171 150.377 356.164V361.389H146.799ZM163.455 361.389V357.993H167.242V345.715H163.455V342.319H174.948V345.715H171.161V357.993H174.948V361.389H163.455ZM182.906 361.389V345.976H178.073V342.319H191.657V345.976H186.824V361.389H182.906ZM200.528 361.65C199.187 361.65 198.02 361.423 197.028 360.971C196.035 360.518 195.269 359.882 194.729 359.064C194.189 358.245 193.919 357.279 193.919 356.164H197.837C197.837 356.808 198.081 357.322 198.569 357.705C199.074 358.071 199.753 358.254 200.606 358.254C201.425 358.254 202.061 358.071 202.513 357.705C202.984 357.34 203.219 356.835 203.219 356.19C203.219 355.633 203.045 355.154 202.696 354.753C202.348 354.353 201.86 354.083 201.233 353.944L199.3 353.5C197.681 353.116 196.418 352.411 195.513 351.384C194.624 350.339 194.18 349.067 194.18 347.57C194.18 346.455 194.433 345.489 194.938 344.67C195.46 343.834 196.192 343.19 197.132 342.737C198.073 342.284 199.187 342.058 200.476 342.058C202.426 342.058 203.968 342.546 205.1 343.521C206.249 344.479 206.824 345.776 206.824 347.413H202.905C202.905 346.804 202.688 346.325 202.252 345.976C201.834 345.628 201.225 345.454 200.424 345.454C199.675 345.454 199.1 345.628 198.7 345.976C198.299 346.307 198.099 346.786 198.099 347.413C198.099 347.97 198.255 348.449 198.569 348.85C198.9 349.233 199.361 349.494 199.953 349.633L201.991 350.104C203.68 350.487 204.96 351.183 205.831 352.193C206.702 353.186 207.137 354.457 207.137 356.007C207.137 357.122 206.858 358.106 206.301 358.959C205.761 359.812 204.995 360.474 204.002 360.944C203.027 361.415 201.869 361.65 200.528 361.65Z" fill="#D71920"/>
<circle cx="184.497" cy="192" r="9.14286" fill="white"/>
<path d="M144.269 436.286V379.078H181.102V390.05H155.867V402.745H179.064V413.717H156.024V436.286H144.269ZM209.283 437.07C205.469 437.07 202.152 436.365 199.331 434.954C196.509 433.491 194.315 431.48 192.748 428.92C191.233 426.308 190.475 423.278 190.475 419.829V395.535C190.475 392.087 191.233 389.083 192.748 386.523C194.315 383.911 196.509 381.9 199.331 380.489C202.152 379.026 205.469 378.295 209.283 378.295C213.149 378.295 216.467 379.026 219.236 380.489C222.057 381.9 224.225 383.911 225.74 386.523C227.308 389.083 228.091 392.087 228.091 395.535V419.829C228.091 423.278 227.308 426.308 225.74 428.92C224.225 431.48 222.057 433.491 219.236 434.954C216.467 436.365 213.149 437.07 209.283 437.07ZM209.283 426.882C211.634 426.882 213.384 426.282 214.534 425.08C215.735 423.826 216.336 422.076 216.336 419.829V395.535C216.336 393.237 215.762 391.486 214.612 390.285C213.463 389.083 211.686 388.482 209.283 388.482C206.88 388.482 205.104 389.083 203.954 390.285C202.805 391.486 202.23 393.237 202.23 395.535V419.829C202.23 422.076 202.805 423.826 203.954 425.08C205.156 426.282 206.932 426.882 209.283 426.882ZM256.273 437.07C252.25 437.07 248.75 436.391 245.772 435.033C242.794 433.674 240.495 431.767 238.875 429.312C237.256 426.856 236.446 423.957 236.446 420.613H248.201C248.201 422.546 248.933 424.087 250.395 425.237C251.911 426.334 253.948 426.882 256.508 426.882C258.964 426.882 260.871 426.334 262.229 425.237C263.64 424.14 264.345 422.624 264.345 420.691C264.345 419.02 263.822 417.583 262.777 416.381C261.733 415.18 260.27 414.37 258.389 413.952L252.59 412.62C247.731 411.47 243.943 409.354 241.226 406.272C238.562 403.137 237.23 399.323 237.23 394.83C237.23 391.486 237.987 388.587 239.502 386.131C241.07 383.624 243.264 381.691 246.085 380.332C248.906 378.974 252.25 378.295 256.116 378.295C261.968 378.295 266.591 379.758 269.987 382.683C273.435 385.557 275.16 389.449 275.16 394.36H263.404C263.404 392.531 262.751 391.095 261.445 390.05C260.191 389.005 258.363 388.482 255.96 388.482C253.713 388.482 251.989 389.005 250.787 390.05C249.586 391.042 248.985 392.479 248.985 394.36C248.985 396.032 249.455 397.469 250.395 398.67C251.388 399.82 252.773 400.603 254.549 401.021L260.662 402.432C265.729 403.581 269.569 405.671 272.182 408.701C274.794 411.679 276.1 415.493 276.1 420.143C276.1 423.486 275.264 426.438 273.592 428.998C271.973 431.558 269.674 433.544 266.696 434.954C263.77 436.365 260.296 437.07 256.273 437.07ZM303.263 437.07C299.24 437.07 295.74 436.391 292.762 435.033C289.784 433.674 287.485 431.767 285.865 429.312C284.246 426.856 283.436 423.957 283.436 420.613H295.191C295.191 422.546 295.922 424.087 297.385 425.237C298.9 426.334 300.938 426.882 303.498 426.882C305.953 426.882 307.86 426.334 309.219 425.237C310.629 424.14 311.335 422.624 311.335 420.691C311.335 419.02 310.812 417.583 309.767 416.381C308.722 415.18 307.26 414.37 305.379 413.952L299.58 412.62C294.721 411.47 290.933 409.354 288.216 406.272C285.552 403.137 284.22 399.323 284.22 394.83C284.22 391.486 284.977 388.587 286.492 386.131C288.06 383.624 290.254 381.691 293.075 380.332C295.896 378.974 299.24 378.295 303.106 378.295C308.957 378.295 313.581 379.758 316.977 382.683C320.425 385.557 322.149 389.449 322.149 394.36H310.394C310.394 392.531 309.741 391.095 308.435 390.05C307.181 389.005 305.353 388.482 302.949 388.482C300.703 388.482 298.979 389.005 297.777 390.05C296.575 391.042 295.975 392.479 295.975 394.36C295.975 396.032 296.445 397.469 297.385 398.67C298.378 399.82 299.762 400.603 301.539 401.021L307.651 402.432C312.719 403.581 316.559 405.671 319.171 408.701C321.784 411.679 323.09 415.493 323.09 420.143C323.09 423.486 322.254 426.438 320.582 428.998C318.962 431.558 316.664 433.544 313.686 434.954C310.76 436.365 307.286 437.07 303.263 437.07Z" fill="white"/>
</svg>
