<svg width="338" height="266" viewBox="0 0 338 266" fill="none" xmlns="http://www.w3.org/2000/svg">
<path d="M62.3836 136.161H42.5V38.1494H91.3964V58.1726H62.3836V77.1049H91.3964V97.1278H62.3836V136.161Z" fill="white"/>
<path d="M120.406 116.061H139.206V58.1729H120.406V116.061ZM110.193 136.161V126.345H100.522V47.8885H110.193V38.1496H149.419V47.8885H159.09V126.345H149.419V136.161H110.193ZM101.064 38.4614H110.193V47.8885H101.064V38.4614ZM149.419 38.1496L159.09 38.1494V47.8885H149.419V38.1496ZM149.419 126.345H159.09V135.849H149.419V126.345ZM100.522 126.345H110.193V136.161L100.522 136.161V126.345Z" fill="white"/>
<path d="M217.112 136.161H168.216V116.06H206.9V97.1278H177.887V87.389H168.216V47.8883H177.887V38.1494H226.783V58.1726H188.099V77.1049H217.112V86.8437H226.783V126.344H217.112V136.161ZM168.758 38.4611H177.887V47.8883H168.758V38.4611ZM168.216 87.389H177.887V97.1278H168.216L168.216 87.389ZM217.112 77.1049H226.783V86.8437H217.112V77.1049ZM217.112 126.344H226.783V135.85H217.112V126.344Z" fill="white"/>
<path d="M284.809 136.161H235.914V116.06H274.596V97.1278H245.585V87.389H235.914V47.8883H245.585V38.1494H294.482V58.1726H255.797V77.1049H284.809V86.8437H294.482V126.344H284.809V136.161ZM236.456 38.4611H245.585V47.8883H236.456V38.4611ZM235.914 87.389H245.585V97.1278H235.914V87.389ZM284.809 77.1049H294.482V86.8437H284.809V77.1049ZM284.809 126.344H294.482V135.85H284.809V126.344Z" fill="white"/>
<path d="M49.4774 225.702V218.596H42.4883V154.754H56.8577V211.151H70.4444V154.754H84.8136V218.596H77.8248V225.702H49.4774ZM42.4883 218.596H49.4774V225.702H42.4883V218.596ZM77.8248 218.596H84.8136V225.476H77.8248V218.596Z" fill="white"/>
<path d="M105.783 225.702H91.4131V154.754H133.739V225.702H119.369V169.248H105.783V225.702Z" fill="white"/>
<path d="M154.705 225.702H140.336V154.754H154.705V225.702Z" fill="white"/>
<path d="M189.65 225.702H175.281V169.248H161.303V154.754H203.628V169.248H189.65V225.702Z" fill="white"/>
<path d="M245.565 225.702H210.228V154.754H245.565V169.248H224.597V182.952H245.565V197.447H224.597V211.151H245.565V225.702Z" fill="white"/>
<path d="M266.522 211.151H280.11V169.248H266.522V211.151ZM252.152 225.702V154.754H287.49V161.804H294.48V218.596H287.49V225.702H252.152Z" fill="white"/>
<path d="M328.78 7.39941H8.19238V256.452H328.78V7.39941Z" stroke="white" stroke-width="6.62745"/>
</svg>
