<svg width="502" height="251" viewBox="0 0 502 251" fill="none" xmlns="http://www.w3.org/2000/svg">
<path d="M411.987 102.194L402.566 111.93C394.718 104.326 387.057 100.518 379.571 100.518C374.812 100.518 370.729 102.091 367.345 105.23C363.942 108.369 362.255 112.033 362.255 116.227C362.255 119.925 363.651 123.449 366.452 126.802C369.25 130.219 375.126 134.235 384.082 138.85C394.999 144.499 402.415 149.941 406.327 155.182C410.173 160.49 412.104 166.46 412.104 173.093C412.104 182.451 408.817 190.372 402.241 196.868C395.672 203.361 387.456 206.604 377.603 206.604C371.03 206.604 364.755 205.178 358.775 202.313C352.798 199.455 347.844 195.509 343.936 190.479L353.146 180.008C360.632 188.458 368.574 192.681 376.971 192.681C382.847 192.681 387.854 190.797 391.977 187.029C396.107 183.257 398.175 178.833 398.175 173.726C398.175 169.536 396.816 165.808 394.085 162.521C391.358 159.312 385.2 155.259 375.608 150.376C365.324 145.068 358.326 139.834 354.621 134.664C350.913 129.5 349.059 123.596 349.059 116.97C349.059 108.312 352.011 101.123 357.921 95.3972C363.828 89.6744 371.291 86.813 380.31 86.813C390.792 86.803 401.354 91.9334 411.987 102.194Z" fill="#F37920"/>
<path d="M495.235 102.194L485.814 111.93C477.973 104.326 470.312 100.518 462.826 100.518C458.06 100.518 453.984 102.091 450.594 105.23C447.197 108.369 445.503 112.033 445.503 116.227C445.503 119.925 446.905 123.449 449.703 126.802C452.498 130.219 458.375 134.235 467.337 138.85C478.247 144.499 485.67 149.941 489.582 155.182C493.427 160.49 495.352 166.46 495.352 173.093C495.352 182.451 492.072 190.372 485.496 196.868C478.926 203.361 470.71 206.604 460.854 206.604C454.278 206.604 448.003 205.178 442.029 202.313C436.049 199.455 431.099 195.509 427.184 190.479L436.394 180.008C443.88 188.458 451.828 192.681 460.225 192.681C466.102 192.681 471.109 190.797 475.232 187.029C479.355 183.261 481.43 178.833 481.43 173.726C481.43 169.536 480.064 165.808 477.333 162.521C474.606 159.312 468.448 155.259 458.856 150.376C448.579 145.068 441.574 139.834 437.87 134.664C434.161 129.5 432.307 123.596 432.307 116.97C432.307 108.312 435.266 101.123 441.173 95.3972C447.08 89.6744 454.546 86.813 463.565 86.813C474.04 86.803 484.612 91.9334 495.235 102.194Z" fill="#F37920"/>
<path d="M19.6949 203.663H6.72656V89.0862L19.6949 87.356V203.663Z" fill="white"/>
<path d="M113.958 188.392C107.298 191.518 99.9255 193.084 91.8299 193.084C82.6935 193.084 74.4507 191.063 67.0914 187.016C59.7354 182.97 53.9457 177.291 49.7289 169.965C45.5087 162.643 43.4003 154.835 43.4003 146.532C43.4003 133.771 47.9853 122.931 57.1518 114.002C66.3217 105.077 77.8476 100.612 91.7229 100.612C99.9623 100.612 107.365 102.132 113.958 105.137L112.228 90.1907C105.267 87.925 99.7783 86.7905 92.3052 86.7905C80.294 86.7905 69.4374 89.4444 59.7388 94.7489C50.0334 100.057 42.403 107.436 36.8543 116.9C31.3088 126.355 29.3945 136.602 29.3945 147.633C29.3945 164.042 34.4681 177.97 46.3387 189.416C58.206 200.862 73.1455 206.588 91.1573 206.588C99.3901 206.588 106.124 205.477 113.098 203.241L113.958 188.392Z" fill="white"/>
<path d="M312.426 94.0072C309.123 90.7308 305.645 87.856 302.018 85.3394C300.89 87.0428 299.739 89.593 298.53 91.2328C297.098 93.1605 295.575 94.1478 293.889 95.8579C297.091 98.0132 300.144 100.52 303.052 103.381C314.772 114.941 320.628 128.956 320.628 145.412C320.628 161.764 314.772 175.743 303.052 187.359C291.332 198.979 277.142 204.779 260.475 204.779C243.812 204.779 229.619 198.949 217.903 187.279C206.182 175.619 200.326 161.657 200.326 145.405C200.326 129.05 206.182 115.071 217.903 103.458C221.43 99.9609 225.392 95.5802 229.161 92.8292C231.031 91.4604 236.182 88.502 236.182 88.502C236.182 88.502 222.939 90.4999 218.528 91.4537C215.938 92.0126 208.15 94.5594 208.15 94.5594C194.191 108.686 187.2 125.627 187.2 145.405C187.2 165.301 194.335 182.359 208.605 196.573C222.876 210.789 240.218 217.894 260.629 217.894C280.84 217.894 298.102 210.813 312.426 196.646C326.746 182.486 333.905 165.398 333.905 145.399C333.901 125.309 326.746 108.174 312.426 94.0072Z" fill="#F37920"/>
<path d="M130.386 89.5161V203.661H141.195V149.616H170.599V140.533H141.195V99.4591L180.977 99.0273L177.949 89.5161H130.386Z" fill="#F37920"/>
<path d="M210.521 90.2458C210.521 90.2458 222.629 79.011 241.404 74.7976C261.487 70.293 283.879 73.3853 283.879 73.3853C283.879 73.3853 287.715 66.1766 290.225 65.0253C291.239 64.5601 294.003 65.0353 294.689 64.1585C300.854 56.3273 309.16 36.9568 314.866 28.1283C322.507 16.3112 336.774 7.51953 336.774 7.51953C336.774 7.51953 319.625 20.4912 309.244 50.3267C306.486 58.265 303.534 75.912 299.877 83.4755C296.955 89.5129 292.42 93.4017 288.638 95.2959C285.469 96.8789 274.509 96.4472 274.509 96.4472C274.509 96.4472 266.5 95.1888 268.023 94.4258C271.48 92.6955 275.623 88.8937 275.56 88.201C275.483 87.2706 269.572 85.6575 267.447 85.3396C261.661 84.4694 249.907 84.2586 244.061 84.7606C235.681 85.4868 210.521 90.2458 210.521 90.2458Z" fill="url(#paint0_linear_220_11)"/>
<path d="M10.6545 227.194V240.959H8.14453V227.194H10.6545Z" fill="white"/>
<path d="M13.552 233.972C13.552 232.827 13.5319 231.87 13.4717 231.01H15.6771L15.801 232.499H15.8612C16.2896 231.726 17.3739 230.786 19.0271 230.786C20.7641 230.786 22.5612 231.907 22.5612 235.053V240.96H20.0512V235.34C20.0512 233.911 19.5191 232.827 18.1503 232.827C17.1497 232.827 16.4569 233.543 16.1892 234.296C16.1089 234.521 16.0888 234.828 16.0888 235.113V240.96H13.552V233.972Z" fill="white"/>
<path d="M28.0081 228.174V231.012H30.3976V232.893H28.0081V237.287C28.0081 238.492 28.3361 239.128 29.2932 239.128C29.7216 239.128 30.0496 239.064 30.2738 239.004L30.314 240.925C29.9458 241.066 29.2932 241.166 28.4967 241.166C27.5764 241.166 26.8 240.862 26.3314 240.349C25.8027 239.781 25.5583 238.88 25.5583 237.572V232.896H24.126V231.016H25.5583V228.77L28.0081 228.174Z" fill="white"/>
<path d="M33.9477 236.692C34.0113 238.489 35.4169 239.266 37.0132 239.266C38.1779 239.266 39.0145 239.102 39.7709 238.817L40.139 240.554C39.2823 240.902 38.0976 241.167 36.6652 241.167C33.439 241.167 31.5381 239.185 31.5381 236.143C31.5381 233.386 33.2114 230.792 36.3974 230.792C39.627 230.792 40.6879 233.446 40.6879 235.631C40.6879 236.1 40.6444 236.468 40.6076 236.692H33.9477ZM38.3184 234.932C38.3385 234.015 37.9302 232.499 36.2535 232.499C34.7007 232.499 34.0481 233.911 33.9443 234.932H38.3184Z" fill="white"/>
<path d="M42.7043 234.219C42.7043 232.871 42.6843 231.91 42.624 231.01H44.8094L44.8897 232.911H44.97C45.4586 231.498 46.6233 230.786 47.6875 230.786C47.9318 230.786 48.0757 230.806 48.2799 230.846V233.215C48.0757 233.175 47.8515 233.135 47.5436 233.135C46.3388 233.135 45.5222 233.911 45.298 235.036C45.2545 235.257 45.2177 235.525 45.2177 235.809V240.96H42.7043V234.219Z" fill="white"/>
<path d="M49.97 233.972C49.97 232.827 49.9499 231.87 49.8896 231.01H52.0951L52.2189 232.499H52.2825C52.7109 231.726 53.7919 230.786 55.4485 230.786C57.1854 230.786 58.9825 231.907 58.9825 235.053V240.96H56.4692V235.34C56.4692 233.911 55.9371 232.827 54.5716 232.827C53.571 232.827 52.8749 233.543 52.6105 234.296C52.5302 234.521 52.5067 234.828 52.5067 235.113V240.96H49.9733L49.97 233.972Z" fill="white"/>
<path d="M67.2472 240.959L67.0832 239.855H67.0197C66.4072 240.631 65.3664 241.183 64.0779 241.183C62.0766 241.183 60.9521 239.731 60.9521 238.218C60.9521 235.708 63.1777 234.44 66.8557 234.46V234.299C66.8557 233.647 66.5913 232.562 64.8343 232.562C63.8537 232.562 62.833 232.87 62.1603 233.299L61.6717 231.665C62.4079 231.217 63.6931 230.789 65.266 230.789C68.452 230.789 69.3724 232.81 69.3724 234.975V238.57C69.3724 239.47 69.4125 240.343 69.5163 240.959H67.2472ZM66.9193 236.096C65.1422 236.056 63.4454 236.444 63.4454 237.957C63.4454 238.938 64.0779 239.39 64.8744 239.39C65.8751 239.39 66.6114 238.737 66.8356 238.021C66.8992 237.837 66.9159 237.633 66.9159 237.469L66.9193 236.096Z" fill="white"/>
<path d="M74.7768 228.174V231.012H77.1663V232.893H74.7768V237.287C74.7768 238.492 75.1048 239.128 76.0653 239.128C76.4936 239.128 76.8216 239.064 77.0458 239.004L77.086 240.925C76.7179 241.066 76.0653 241.166 75.2688 241.166C74.3518 241.166 73.5753 240.862 73.1068 240.349C72.5747 239.781 72.3304 238.88 72.3304 237.572V232.896H70.9014V231.016H72.3304V228.77L74.7768 228.174Z" fill="white"/>
<path d="M81.7388 228.232C81.7388 228.992 81.1866 229.581 80.3098 229.581C79.4731 229.581 78.9209 228.988 78.9209 228.232C78.9209 227.459 79.4932 226.867 80.3298 226.867C81.1866 226.867 81.7187 227.459 81.7388 228.232ZM79.0648 240.96V231.01H81.5982V240.96H79.0648Z" fill="white"/>
<path d="M93.747 235.892C93.747 239.55 91.1734 241.183 88.6433 241.183C85.8221 241.183 83.6602 239.242 83.6602 236.056C83.6602 232.787 85.8054 230.789 88.8073 230.789C91.7658 230.789 93.747 232.87 93.747 235.892ZM86.2505 235.996C86.2505 237.917 87.1909 239.366 88.7237 239.366C90.1527 239.366 91.1533 237.957 91.1533 235.956C91.1533 234.403 90.4572 232.626 88.7437 232.626C86.9633 232.626 86.2505 234.339 86.2505 235.996Z" fill="white"/>
<path d="M95.8 233.972C95.8 232.827 95.78 231.87 95.7197 231.01H97.9252L98.049 232.499H98.1126C98.541 231.726 99.6219 230.786 101.279 230.786C103.015 230.786 104.813 231.907 104.813 235.053V240.96H102.299V235.34C102.299 233.911 101.767 232.827 100.402 232.827C99.4011 232.827 98.705 233.543 98.4406 234.296C98.3603 234.521 98.3368 234.828 98.3368 235.113V240.96H95.8034V233.972H95.8Z" fill="white"/>
<path d="M113.074 240.959L112.91 239.855H112.847C112.234 240.631 111.194 241.183 109.905 241.183C107.904 241.183 106.779 239.731 106.779 238.218C106.779 235.708 109.005 234.44 112.683 234.46V234.299C112.683 233.647 112.418 232.562 110.661 232.562C109.681 232.562 108.66 232.87 107.987 233.299L107.499 231.665C108.235 231.217 109.52 230.789 111.093 230.789C114.279 230.789 115.2 232.81 115.2 234.975V238.57C115.2 239.47 115.24 240.343 115.343 240.959H113.074ZM112.746 236.096C110.969 236.056 109.273 236.444 109.273 237.957C109.273 238.938 109.905 239.39 110.702 239.39C111.702 239.39 112.439 238.737 112.663 238.021C112.726 237.837 112.743 237.633 112.743 237.469L112.746 236.096Z" fill="white"/>
<path d="M117.85 226.455H120.383V240.96H117.85V226.455Z" fill="white"/>
<path d="M137.288 240.549C136.696 240.857 135.387 241.161 133.734 241.161C129.363 241.161 126.706 238.427 126.706 234.241C126.706 229.706 129.852 226.968 134.059 226.968C135.712 226.968 136.9 227.316 137.409 227.581L136.856 229.585C136.204 229.298 135.304 229.053 134.159 229.053C131.361 229.053 129.34 230.81 129.34 234.12C129.34 237.142 131.117 239.083 134.142 239.083C135.163 239.083 136.227 238.876 136.88 238.575L137.288 240.549Z" fill="white"/>
<path d="M140.774 236.692C140.837 238.489 142.243 239.266 143.839 239.266C145.004 239.266 145.841 239.102 146.597 238.817L146.965 240.554C146.108 240.902 144.924 241.167 143.491 241.167C140.265 241.167 138.364 239.185 138.364 236.143C138.364 233.386 140.038 230.792 143.224 230.792C146.453 230.792 147.514 233.446 147.514 235.631C147.514 236.1 147.471 236.468 147.434 236.692H140.774ZM145.148 234.932C145.168 234.015 144.76 232.499 143.083 232.499C141.53 232.499 140.878 233.911 140.774 234.932H145.148Z" fill="white"/>
<path d="M149.53 233.972C149.53 232.827 149.509 231.87 149.449 231.01H151.655L151.778 232.499H151.842C152.27 231.726 153.351 230.786 155.008 230.786C156.745 230.786 158.542 231.907 158.542 235.053V240.96H156.029V235.34C156.029 233.911 155.497 232.827 154.131 232.827C153.131 232.827 152.434 233.543 152.17 234.296C152.09 234.521 152.066 234.828 152.066 235.113V240.96H149.533L149.53 233.972Z" fill="white"/>
<path d="M163.99 228.174V231.012H166.379V232.893H163.99V237.287C163.99 238.492 164.318 239.128 165.275 239.128C165.703 239.128 166.031 239.064 166.255 239.004L166.295 240.925C165.927 241.066 165.275 241.166 164.478 241.166C163.558 241.166 162.781 240.862 162.313 240.349C161.784 239.781 161.54 238.88 161.54 237.572V232.896H160.107V231.016H161.54V228.77L163.99 228.174Z" fill="white"/>
<path d="M168.274 234.219C168.274 232.871 168.254 231.91 168.193 231.01H170.379L170.459 232.911H170.539C171.028 231.498 172.193 230.786 173.257 230.786C173.501 230.786 173.645 230.806 173.849 230.846V233.215C173.645 233.175 173.421 233.135 173.113 233.135C171.908 233.135 171.092 233.911 170.867 235.036C170.824 235.257 170.787 235.525 170.787 235.809V240.96H168.274V234.219Z" fill="white"/>
<path d="M177.136 236.692C177.2 238.489 178.605 239.266 180.202 239.266C181.366 239.266 182.203 239.102 182.959 238.817L183.327 240.554C182.471 240.902 181.286 241.167 179.854 241.167C176.627 241.167 174.727 239.185 174.727 236.143C174.727 233.386 176.4 230.792 179.586 230.792C182.815 230.792 183.876 233.446 183.876 235.631C183.876 236.1 183.833 236.468 183.796 236.692H177.136ZM181.507 234.932C181.527 234.015 181.119 232.499 179.442 232.499C177.889 232.499 177.237 233.911 177.133 234.932H181.507Z" fill="white"/>
<path d="M190.402 240.958V232.889H189.054V231.009H190.402V230.58C190.402 229.292 190.75 228.007 191.607 227.19C192.343 226.494 193.344 226.229 194.201 226.229C194.877 226.229 195.406 226.33 195.814 226.474L195.63 228.412C195.366 228.311 195.017 228.227 194.569 228.227C193.324 228.227 192.896 229.272 192.896 230.496V231.005H195.081V232.886H192.919V240.958H190.402Z" fill="white"/>
<path d="M205.864 235.892C205.864 239.55 203.287 241.183 200.757 241.183C197.939 241.183 195.773 239.242 195.773 236.056C195.773 232.787 197.919 230.789 200.921 230.789C203.879 230.789 205.864 232.87 205.864 235.892ZM198.364 235.996C198.364 237.917 199.304 239.366 200.834 239.366C202.266 239.366 203.267 237.957 203.267 235.956C203.267 234.403 202.571 232.626 200.857 232.626C199.08 232.626 198.364 234.339 198.364 235.996Z" fill="white"/>
<path d="M207.917 234.219C207.917 232.871 207.897 231.91 207.837 231.01H210.022L210.103 232.911H210.183C210.672 231.498 211.836 230.786 212.9 230.786C213.145 230.786 213.289 230.806 213.493 230.846V233.215C213.289 233.175 213.064 233.135 212.757 233.135C211.552 233.135 210.735 233.911 210.511 235.036C210.467 235.257 210.431 235.525 210.431 235.809V240.96H207.917V234.219Z" fill="white"/>
<path d="M219.514 227.194H227.459V229.255H222.024V233.054H227.091V235.115H222.024V240.959H219.514V227.194Z" fill="white"/>
<path d="M229.353 234.219C229.353 232.871 229.333 231.91 229.272 231.01H231.458L231.538 232.911H231.618C232.107 231.498 233.275 230.786 234.336 230.786C234.58 230.786 234.724 230.806 234.928 230.846V233.215C234.721 233.175 234.5 233.135 234.192 233.135C232.987 233.135 232.171 233.911 231.943 235.036C231.903 235.257 231.863 235.525 231.863 235.809V240.96H229.353V234.219Z" fill="white"/>
<path d="M238.216 236.692C238.276 238.489 239.685 239.266 241.278 239.266C242.443 239.266 243.283 239.102 244.036 238.817L244.404 240.554C243.547 240.902 242.362 241.167 240.93 241.167C237.704 241.167 235.803 239.185 235.803 236.143C235.803 233.386 237.479 230.792 240.665 230.792C243.892 230.792 244.953 233.446 244.953 235.631C244.953 236.1 244.912 236.468 244.872 236.692H238.216ZM242.583 234.932C242.603 234.015 242.195 232.499 240.522 232.499C238.969 232.499 238.316 233.911 238.216 234.932H242.583Z" fill="white"/>
<path d="M248.746 236.692C248.809 238.489 250.215 239.266 251.811 239.266C252.976 239.266 253.812 239.102 254.565 238.817L254.934 240.554C254.073 240.902 252.892 241.167 251.46 241.167C248.233 241.167 246.336 239.185 246.336 236.143C246.336 233.386 248.009 230.792 251.195 230.792C254.425 230.792 255.486 233.446 255.486 235.631C255.486 236.1 255.442 236.468 255.405 236.692H248.746ZM253.12 234.932C253.14 234.015 252.731 232.499 251.058 232.499C249.502 232.499 248.849 233.911 248.749 234.932H253.12Z" fill="white"/>
<path d="M267.328 240.959L267.164 239.855H267.101C266.488 240.631 265.447 241.183 264.159 241.183C262.158 241.183 261.033 239.731 261.033 238.218C261.033 235.708 263.259 234.44 266.937 234.46V234.299C266.937 233.647 266.672 232.562 264.915 232.562C263.935 232.562 262.914 232.87 262.241 233.299L261.753 231.665C262.489 231.217 263.774 230.789 265.347 230.789C268.533 230.789 269.453 232.81 269.453 234.975V238.57C269.453 239.47 269.494 240.343 269.597 240.959H267.328ZM267 236.096C265.223 236.056 263.53 236.444 263.53 237.957C263.53 238.938 264.159 239.39 264.959 239.39C265.959 239.39 266.696 238.737 266.92 238.021C266.984 237.837 267 237.633 267 237.469V236.096Z" fill="white"/>
<path d="M272.098 233.972C272.098 232.827 272.078 231.87 272.021 231.01H274.224L274.347 232.499H274.411C274.839 231.726 275.92 230.786 277.577 230.786C279.314 230.786 281.111 231.907 281.111 235.053V240.96H278.598V235.34C278.598 233.911 278.069 232.827 276.7 232.827C275.696 232.827 275.003 233.543 274.739 234.296C274.659 234.521 274.639 234.828 274.639 235.113V240.96H272.102L272.098 233.972Z" fill="white"/>
<path d="M292.949 226.455V238.162C292.949 239.182 292.989 240.287 293.029 240.959H290.78L290.68 239.387H290.64C290.044 240.488 288.843 241.184 287.39 241.184C285.021 241.184 283.14 239.162 283.14 236.093C283.12 232.767 285.201 230.786 287.591 230.786C288.96 230.786 289.94 231.355 290.389 232.094H290.432V226.452L292.949 226.455ZM290.436 235.16C290.436 234.952 290.415 234.711 290.372 234.507C290.151 233.527 289.351 232.73 288.21 232.73C286.597 232.73 285.697 234.162 285.697 236.02C285.697 237.837 286.597 239.162 288.19 239.162C289.211 239.162 290.108 238.47 290.352 237.385C290.415 237.164 290.432 236.913 290.432 236.649L290.436 235.16Z" fill="white"/>
<path d="M312.181 233.929C312.181 238.544 309.383 241.181 305.584 241.181C301.702 241.181 299.249 238.216 299.249 234.174C299.249 229.943 301.903 226.965 305.785 226.965C309.811 226.965 312.181 230.01 312.181 233.929ZM301.906 234.133C301.906 236.935 303.319 239.16 305.728 239.16C308.161 239.16 309.53 236.911 309.53 234.033C309.53 231.443 308.242 228.99 305.728 228.99C303.235 228.99 301.906 231.295 301.906 234.133Z" fill="white"/>
<path d="M314.298 234.323C314.298 233.014 314.254 231.953 314.214 231.013H316.423L316.543 232.546H316.587C317.32 231.421 318.484 230.792 319.997 230.792C322.286 230.792 324.184 232.753 324.184 235.859C324.184 239.453 321.918 241.19 319.652 241.19C318.407 241.19 317.363 240.658 316.854 239.861H316.811V245.012H314.301L314.298 234.323ZM316.808 236.793C316.808 237.037 316.828 237.264 316.888 237.489C317.132 238.509 318.032 239.242 319.093 239.242C320.69 239.242 321.627 237.917 321.627 235.956C321.627 234.199 320.77 232.77 319.157 232.77C318.113 232.77 317.152 233.526 316.911 234.627C316.848 234.835 316.808 235.059 316.808 235.26V236.793Z" fill="white"/>
<path d="M328.017 236.692C328.081 238.489 329.486 239.266 331.083 239.266C332.247 239.266 333.084 239.102 333.837 238.817L334.205 240.554C333.345 240.902 332.164 241.167 330.731 241.167C327.505 241.167 325.607 239.185 325.607 236.143C325.607 233.386 327.281 230.792 330.467 230.792C333.696 230.792 334.757 233.446 334.757 235.631C334.757 236.1 334.714 236.468 334.677 236.692H328.017ZM332.388 234.932C332.408 234.015 332 232.499 330.326 232.499C328.77 232.499 328.117 233.911 328.017 234.932H332.388Z" fill="white"/>
<path d="M336.77 233.972C336.77 232.827 336.75 231.87 336.693 231.01H338.895L339.019 232.499H339.083C339.511 231.726 340.592 230.786 342.249 230.786C343.986 230.786 345.783 231.907 345.783 235.053V240.96H343.27V235.34C343.27 233.911 342.741 232.827 341.372 232.827C340.368 232.827 339.675 233.543 339.411 234.296C339.331 234.521 339.31 234.828 339.31 235.113V240.96H336.774L336.77 233.972Z" fill="white"/>
<path d="M352.717 238.22C353.534 238.692 354.759 239.1 356.047 239.1C357.66 239.1 358.557 238.344 358.557 237.219C358.557 236.178 357.864 235.566 356.107 234.93C353.842 234.113 352.393 232.909 352.393 230.927C352.393 228.682 354.273 226.965 357.252 226.965C358.745 226.965 359.846 227.293 360.562 227.658L359.949 229.679C359.461 229.415 358.497 229.026 357.212 229.026C355.615 229.026 354.923 229.883 354.923 230.68C354.923 231.741 355.719 232.233 357.557 232.949C359.949 233.849 361.114 235.054 361.114 237.035C361.114 239.24 359.437 241.158 355.883 241.158C354.431 241.158 352.921 240.753 352.165 240.301L352.717 238.22Z" fill="white"/>
<path d="M372.848 235.892C372.848 239.55 370.274 241.183 367.744 241.183C364.923 241.183 362.761 239.242 362.761 236.056C362.761 232.787 364.906 230.789 367.908 230.789C370.866 230.789 372.848 232.87 372.848 235.892ZM365.354 235.996C365.354 237.917 366.291 239.366 367.824 239.366C369.253 239.366 370.257 237.957 370.257 235.956C370.257 234.403 369.561 232.626 367.844 232.626C366.067 232.626 365.354 234.339 365.354 235.996Z" fill="white"/>
<path d="M383.815 237.975C383.815 239.16 383.855 240.137 383.892 240.957H381.69L381.566 239.448H381.526C381.094 240.161 380.114 241.185 378.337 241.185C376.519 241.185 374.866 240.104 374.866 236.854V231.011H377.38V236.422C377.38 238.079 377.908 239.143 379.24 239.143C380.241 239.143 380.894 238.427 381.158 237.794C381.238 237.57 381.302 237.306 381.302 237.021V231.014H383.815V237.975Z" fill="white"/>
<path d="M386.519 234.219C386.519 232.871 386.499 231.91 386.442 231.01H388.624L388.705 232.911H388.785C389.274 231.498 390.438 230.786 391.506 230.786C391.747 230.786 391.891 230.806 392.098 230.846V233.215C391.891 233.175 391.67 233.135 391.362 233.135C390.157 233.135 389.341 233.911 389.113 235.036C389.073 235.257 389.033 235.525 389.033 235.809V240.96H386.519V234.219Z" fill="white"/>
<path d="M400.921 240.652C400.392 240.896 399.348 241.16 398.103 241.16C394.997 241.16 392.976 239.179 392.976 236.093C392.976 233.112 395.017 230.786 398.508 230.786C399.428 230.786 400.368 230.99 400.941 231.254L400.492 233.135C400.084 232.951 399.488 232.75 398.595 232.75C396.674 232.75 395.529 234.159 395.549 235.976C395.549 238.018 396.874 239.182 398.595 239.182C399.471 239.182 400.084 238.998 400.576 238.798L400.921 240.652Z" fill="white"/>
<path d="M404.363 236.692C404.426 238.489 405.832 239.266 407.428 239.266C408.593 239.266 409.43 239.102 410.186 238.817L410.551 240.554C409.694 240.902 408.509 241.167 407.08 241.167C403.851 241.167 401.953 239.185 401.953 236.143C401.953 233.386 403.626 230.792 406.812 230.792C410.042 230.792 411.103 233.446 411.103 235.631C411.103 236.1 411.059 236.468 411.023 236.692H404.363ZM408.737 234.932C408.757 234.015 408.349 232.499 406.672 232.499C405.122 232.499 404.47 233.911 404.366 234.932H408.737Z" fill="white"/>
<path d="M417.389 238.22C418.206 238.692 419.431 239.1 420.719 239.1C422.332 239.1 423.229 238.344 423.229 237.219C423.229 236.178 422.536 235.566 420.779 234.93C418.514 234.113 417.064 232.909 417.064 230.927C417.064 228.682 418.945 226.965 421.924 226.965C423.416 226.965 424.517 227.293 425.234 227.658L424.621 229.679C424.133 229.415 423.169 229.026 421.884 229.026C420.287 229.026 419.595 229.883 419.595 230.68C419.595 231.741 420.391 232.233 422.228 232.949C424.621 233.849 425.786 235.054 425.786 237.035C425.786 239.24 424.109 241.158 420.555 241.158C419.103 241.158 417.593 240.753 416.837 240.301L417.389 238.22Z" fill="white"/>
<path d="M437.519 235.892C437.519 239.55 434.946 241.183 432.416 241.183C429.595 241.183 427.433 239.242 427.433 236.056C427.433 232.787 429.578 230.789 432.58 230.789C435.542 230.789 437.519 232.87 437.519 235.892ZM430.026 235.996C430.026 237.917 430.963 239.366 432.496 239.366C433.925 239.366 434.929 237.957 434.929 235.956C434.929 234.403 434.233 232.626 432.516 232.626C430.739 232.626 430.026 234.339 430.026 235.996Z" fill="white"/>
<path d="M439.863 240.958V232.889H438.518V231.009H439.863V230.58C439.863 229.292 440.211 228.007 441.068 227.19C441.804 226.494 442.805 226.229 443.658 226.229C444.334 226.229 444.863 226.33 445.271 226.474L445.087 228.412C444.823 228.311 444.471 228.227 444.026 228.227C442.781 228.227 442.35 229.272 442.35 230.496V231.005H444.535V232.886H442.373V240.958H439.863Z" fill="white"/>
<path d="M449.234 228.174V231.012H451.624V232.893H449.234V237.287C449.234 238.492 449.562 239.128 450.523 239.128C450.951 239.128 451.279 239.064 451.503 239.004L451.543 240.925C451.179 241.066 450.523 241.166 449.726 241.166C448.806 241.166 448.029 240.862 447.561 240.349C447.032 239.781 446.788 238.88 446.788 237.572V232.896H445.355V231.016H446.788V228.77L449.234 228.174Z" fill="white"/>
<path d="M455.174 231.008L456.218 235.526C456.439 236.583 456.667 237.671 456.851 238.752H456.891C457.095 237.671 457.42 236.567 457.708 235.546L458.996 231.011H461.038L462.282 235.422C462.59 236.587 462.855 237.671 463.079 238.752H463.119C463.283 237.671 463.507 236.587 463.772 235.422L464.876 231.011H467.346L464.224 240.957H461.894L460.71 236.911C460.402 235.871 460.177 234.93 459.953 233.729H459.91C459.702 234.95 459.438 235.931 459.153 236.911L457.888 240.957H455.542L452.601 231.008H455.174Z" fill="white"/>
<path d="M474.43 240.959L474.266 239.855H474.202C473.59 240.631 472.549 241.183 471.261 241.183C469.259 241.183 468.135 239.731 468.135 238.218C468.135 235.708 470.36 234.44 474.038 234.46V234.299C474.038 233.647 473.774 232.562 472.017 232.562C471.036 232.562 470.016 232.87 469.343 233.299L468.854 231.665C469.591 231.217 470.876 230.789 472.449 230.789C475.635 230.789 476.555 232.81 476.555 234.975V238.57C476.555 239.47 476.595 240.343 476.699 240.959H474.43ZM474.102 236.096C472.325 236.056 470.631 236.444 470.631 237.957C470.631 238.938 471.261 239.39 472.06 239.39C473.061 239.39 473.797 238.737 474.022 238.021C474.085 237.837 474.102 237.633 474.102 237.469V236.096Z" fill="white"/>
<path d="M479.203 234.219C479.203 232.871 479.183 231.91 479.126 231.01H481.308L481.388 232.911H481.469C481.957 231.498 483.122 230.786 484.189 230.786C484.43 230.786 484.574 230.806 484.782 230.846V233.215C484.574 233.175 484.353 233.135 484.046 233.135C482.841 233.135 482.024 233.911 481.797 235.036C481.756 235.257 481.716 235.525 481.716 235.809V240.96H479.203V234.219Z" fill="white"/>
<path d="M488.062 236.692C488.126 238.489 489.531 239.266 491.127 239.266C492.292 239.266 493.129 239.102 493.885 238.817L494.25 240.554C493.393 240.902 492.208 241.167 490.779 241.167C487.55 241.167 485.652 239.185 485.652 236.143C485.652 233.386 487.326 230.792 490.512 230.792C493.741 230.792 494.802 233.446 494.802 235.631C494.802 236.1 494.759 236.468 494.722 236.692H488.062ZM492.436 234.932C492.456 234.015 492.048 232.499 490.371 232.499C488.822 232.499 488.169 233.911 488.065 234.932H492.436Z" fill="white"/>
<defs>
<linearGradient id="paint0_linear_220_11" x1="210.518" y1="52.0101" x2="336.773" y2="52.0101" gradientUnits="userSpaceOnUse">
<stop offset="0.005" stop-color="white"/>
<stop offset="1" stop-color="#964000"/>
</linearGradient>
</defs>
</svg>
