<svg width="1056" height="794" viewBox="0 0 1056 794" fill="none" xmlns="http://www.w3.org/2000/svg">
<g clip-path="url(#clip0_800_291)">
<path d="M596.865 175.538C470.598 190.778 269.807 329.327 142 501.665C412.167 277.739 545.998 205.487 733.781 230.4C760.649 231.715 762.436 241.467 762.685 260.88C761.464 275.026 765.498 282.631 771.347 289.31C771.648 289.654 772.051 289.891 772.496 289.996L795.795 295.488C796.874 295.743 797.604 296.75 797.508 297.855L794.661 330.654C794.642 330.871 794.591 331.085 794.51 331.288L776.377 376.701L757.006 379.473C755.777 379.649 754.677 380.328 753.969 381.348L693.372 468.702C692.955 469.303 692.269 469.662 691.537 469.662H662.28C640.164 459.406 629.294 443.203 615.12 417.847C613.192 393.339 609.311 374.136 609.039 340.591C609.036 340.287 608.967 339.97 608.845 339.693C596.587 311.805 591.086 307.643 586.318 304.965C583.839 303.573 580.408 304.408 579.092 306.928C551.917 359.002 541.427 380.028 507.58 436.868C507.283 437.366 507.185 437.98 507.316 438.545C512.069 458.986 512.521 471.902 510.388 494.638C510.265 495.952 511.296 497.093 512.616 497.093H542.098L548.388 513.474C548.988 515.037 551.034 515.407 552.155 514.162C565.115 499.77 574.255 491.557 592.301 478.805C610.249 482.263 623.319 496.264 647.067 523H733.451C735.051 523 736.129 521.362 735.537 519.876C728.271 501.625 728.713 490.704 744.43 472.71C767.742 440.315 782.204 422.311 816.223 392.996C816.949 392.37 818.023 392.286 818.861 392.752C856.303 413.625 890.949 376.434 907.977 355.111C922.498 336.928 918.604 285.027 902.643 266.975C902.643 329.458 872.218 359.937 850.92 334.03C860.464 237.084 835.707 215.161 805.281 244.116V199.921C800.733 172.453 790.392 165.21 762.685 161.822C709.038 159.878 687.903 158.605 682.057 155.727C616.641 117.628 651.631 56.6699 774.855 82.5766C748.929 55.8325 704.685 46.014 691.979 46.0009C644.586 45.952 640.281 47.8588 627.29 53.6214C627.29 53.6214 520.8 85.6245 596.865 175.538Z" fill="white"/>
<path d="M126.669 644.978C126.669 624.949 142.663 608.956 162.691 608.956V623.509C150.732 623.509 141.222 633.163 141.222 644.978C141.222 665.006 125.228 681 105.2 681V666.447C117.015 666.447 126.669 656.937 126.669 644.978ZM234.595 644.978V608.956H249.148V644.978V645.842C249.58 657.369 259.09 666.447 270.617 666.447C282.432 666.447 292.086 656.937 292.086 644.978V608.956H306.639V644.978C306.639 665.006 290.645 681 270.617 681C258.658 681 248.572 675.381 241.799 666.735C235.315 675.381 224.797 681 213.126 681C193.097 681 177.103 665.006 177.103 644.978V608.956H191.656V644.978C191.656 656.937 201.166 666.447 213.126 666.447C224.653 666.447 234.163 657.369 234.595 645.842V644.978ZM357.074 666.447V681C337.045 681 321.052 665.006 321.052 644.978C321.052 624.949 337.045 608.956 357.074 608.956C377.102 608.956 393.096 624.949 393.096 644.978V681H378.543V644.978C378.543 633.163 368.889 623.509 357.074 623.509C345.114 623.509 335.604 633.163 335.604 644.978C335.604 656.937 345.114 666.447 357.074 666.447ZM438.124 608.956V623.509C426.164 623.509 416.654 633.163 416.654 644.978C416.654 656.937 426.164 666.447 438.124 666.447V681C418.095 681 402.101 665.006 402.101 644.978V580.138H416.654V616.16C422.562 611.693 430.055 608.956 438.124 608.956ZM524.521 681H509.968V644.978C509.968 633.163 500.314 623.509 488.498 623.509C476.971 623.509 467.461 632.586 467.029 644.113V644.978H452.476V580.138H467.029V616.16C472.937 611.693 480.429 608.956 488.498 608.956C508.527 608.956 524.521 624.949 524.521 644.978V681ZM574.895 666.447V681C554.867 681 538.873 665.006 538.873 644.978C538.873 624.949 554.867 608.956 574.895 608.956C594.924 608.956 610.918 624.949 610.918 644.978V681H596.365V644.978C596.365 633.163 586.711 623.509 574.895 623.509C562.936 623.509 553.426 633.163 553.426 644.978C553.426 656.937 562.936 666.447 574.895 666.447ZM625.27 681V644.978C625.27 624.949 641.264 608.956 661.292 608.956C681.321 608.956 697.314 624.949 697.314 644.978V681H682.762V644.978C682.762 633.163 673.108 623.509 661.292 623.509C649.333 623.509 639.823 633.163 639.823 644.978V681H625.27ZM742.342 608.956V623.509C730.383 623.509 720.873 633.163 720.873 644.978C720.873 656.937 730.383 666.447 742.342 666.447V681C722.314 681 706.32 665.006 706.32 644.978V580.138H720.873V616.16C726.781 611.693 734.273 608.956 742.342 608.956ZM828.739 681H814.186V644.978C814.186 633.163 804.532 623.509 792.717 623.509C781.19 623.509 771.68 632.586 771.248 644.113V644.978H756.695V580.138H771.248V616.16C777.155 611.693 784.648 608.956 792.717 608.956C812.745 608.956 828.739 624.949 828.739 644.978V681ZM879.114 608.956V623.509C867.155 623.509 857.645 633.163 857.645 644.978V681H843.092V644.978C843.092 624.949 859.086 608.956 879.114 608.956ZM918.654 666.447V681C898.626 681 882.632 665.006 882.632 644.978C882.632 624.949 898.626 608.956 918.654 608.956C938.682 608.956 954.676 624.949 954.676 644.978V681H940.123V644.978C940.123 633.163 930.469 623.509 918.654 623.509C906.695 623.509 897.185 633.163 897.185 644.978C897.185 656.937 906.695 666.447 918.654 666.447Z" fill="white"/>
<path d="M465.977 681H451.424V580.138H465.977V681Z" fill="white"/>
<path d="M770.452 681H755.899V580.138H770.452V681Z" fill="white"/>
</g>
<defs>
<clipPath id="clip0_800_291">
<rect width="1056" height="794" fill="white"/>
</clipPath>
</defs>
</svg>
