<svg width="499" height="488" viewBox="0 0 499 488" fill="none" xmlns="http://www.w3.org/2000/svg">
<g filter="url(#filter0_di_1339_327)">
<path d="M136.398 376.521C109.351 376.521 89.864 356.026 89.864 330.827C89.864 305.628 109.351 284.965 136.398 284.965C163.445 284.965 182.932 305.628 182.932 330.827C182.932 356.026 163.445 376.521 136.398 376.521ZM112.543 330.827C112.543 344.434 121.951 355.858 136.398 355.858C150.845 355.858 160.253 344.434 160.253 330.827C160.253 317.219 150.845 305.628 136.398 305.628C121.951 305.628 112.543 317.219 112.543 330.827Z" fill="white"/>
<path d="M190.665 281.101C190.665 263.462 202.005 250.883 219.645 250.883L228.933 250.73L229.135 271.021H223.255C216.536 271.021 213.344 274.549 213.344 281.437V286.981H231.151V306.3H213.344V374.337H190.665V306.3H178.401V286.981H190.665V281.101Z" fill="white"/>
<path d="M285.964 374.337C268.661 374.337 259.253 366.273 259.253 347.29V306.3H246.99V286.981H259.253V269.341L281.932 266.989V286.981H298.395V306.3H281.932V346.114C281.932 351.658 284.62 354.178 288.988 354.178H298.395V374.337H285.964Z" fill="white"/>
<path d="M301.272 374.337V251.702H323.951V299.076C328.655 289.668 337.223 284.965 350.326 284.965C369.141 284.965 383.589 298.908 383.589 320.915V374.337H360.91V326.459C360.91 311.339 353.35 304.788 342.095 304.788C332.519 304.788 323.951 311.339 323.951 326.459V374.337H301.272Z" fill="white"/>
<path d="M431.371 376.521C404.324 376.521 386.181 356.026 386.181 330.827C386.181 305.628 405.164 284.797 431.371 284.797C457.578 284.797 475.721 305.628 475.721 330.827C475.721 333.347 475.553 336.034 475.049 338.89H409.7C412.22 349.138 419.947 356.362 431.371 356.362C441.114 356.362 448.674 351.322 452.706 344.602L470.345 357.873C463.29 368.793 448.674 376.521 431.371 376.521ZM409.7 321.923H452.874C450.354 312.179 442.122 304.284 431.035 304.284C420.283 304.284 412.22 311.507 409.7 321.923Z" fill="white"/>
<path d="M51.2366 386.887H77.7794L89.0349 436.445C90.2669 441.484 91.1629 445.908 91.7228 449.716C92.5068 444.9 93.4588 440.42 94.5787 436.277L107.346 386.887H133.385L146.992 436.277C148.112 440.42 149.064 444.9 149.848 449.716C150.408 445.908 151.304 441.484 152.536 436.445L164.632 386.887H189.327L162.112 474.243H137.585L123.305 424.517C121.962 420.485 120.954 416.118 120.282 411.414C119.498 416.566 118.602 420.933 117.594 424.517L104.49 474.243H78.4514L51.2366 386.887Z" fill="white"/>
<path d="M225.183 476.427C216.335 476.427 208.495 474.411 201.664 470.379C194.832 466.235 189.512 460.692 185.704 453.748C181.896 446.804 179.992 439.133 179.992 430.733C179.992 422.445 181.952 414.774 185.872 407.718C189.792 400.662 195.168 395.063 202 390.919C208.943 386.775 216.671 384.703 225.183 384.703C233.694 384.703 241.31 386.775 248.03 390.919C254.861 395.063 260.125 400.662 263.821 407.718C267.629 414.662 269.533 422.333 269.533 430.733C269.533 433.533 269.309 436.221 268.861 438.796H203.511C204.855 444.06 207.375 448.316 211.071 451.564C214.879 454.7 219.583 456.268 225.183 456.268C229.886 456.268 234.086 455.204 237.782 453.076C241.478 450.836 244.39 447.98 246.518 444.508L264.157 457.78C260.573 463.379 255.309 467.915 248.366 471.387C241.422 474.747 233.694 476.427 225.183 476.427ZM246.686 421.829C245.342 416.789 242.71 412.59 238.79 409.23C234.87 405.87 230.222 404.19 224.847 404.19C219.583 404.19 214.991 405.814 211.071 409.062C207.263 412.31 204.743 416.565 203.511 421.829H246.686Z" fill="white"/>
<path d="M313.451 476.427C304.603 476.427 296.764 474.411 289.932 470.379C283.1 466.235 277.78 460.692 273.973 453.748C270.165 446.804 268.261 439.133 268.261 430.733C268.261 422.445 270.221 414.774 274.141 407.718C278.06 400.662 283.436 395.063 290.268 390.919C297.212 386.775 304.939 384.703 313.451 384.703C321.963 384.703 329.578 386.775 336.298 390.919C343.13 395.063 348.393 400.662 352.089 407.718C355.897 414.662 357.801 422.333 357.801 430.733C357.801 433.533 357.577 436.221 357.129 438.796H291.78C293.124 444.06 295.644 448.316 299.34 451.564C303.147 454.7 307.851 456.268 313.451 456.268C318.155 456.268 322.355 455.204 326.05 453.076C329.746 450.836 332.658 447.98 334.786 444.508L352.425 457.78C348.841 463.379 343.578 467.915 336.634 471.387C329.69 474.747 321.963 476.427 313.451 476.427ZM334.954 421.829C333.61 416.789 330.978 412.59 327.058 409.23C323.138 405.87 318.491 404.19 313.115 404.19C307.851 404.19 303.259 405.814 299.34 409.062C295.532 412.31 293.012 416.565 291.78 421.829H334.954Z" fill="white"/>
<path d="M383.716 432.749V474.243H361.037V351.609H383.716V422.165L416.475 386.887H448.73L407.571 427.541L448.898 474.243H418.827L383.716 432.749Z" fill="white"/>
<path d="M5 270.742V149.787H27.343V163.898C32.0468 154.323 39.9425 147.939 55.2298 147.939C79.2528 147.939 98.404 168.602 98.404 193.801C98.404 219 79.2528 239.327 55.2298 239.327C40.2785 239.327 32.3828 233.279 27.679 224.208V270.742H5ZM27.007 193.801C27.007 207.408 36.5826 218.832 51.534 218.832C65.9814 218.832 75.7249 206.904 75.7249 193.633C75.7249 180.025 65.9814 168.434 51.534 168.434C36.5826 168.434 27.007 180.193 27.007 193.801Z" fill="white"/>
<path d="M101.799 237.143V149.787H123.806V166.418C126.83 153.819 128.879 149.787 150.853 149.787V169.106H147.661C134.558 169.106 124.478 177.842 124.478 192.457V237.143H101.799Z" fill="white"/>
<path d="M190.587 239.327C163.541 239.327 144.053 218.832 144.053 193.633C144.053 168.434 163.541 147.771 190.587 147.771C217.634 147.771 237.121 168.434 237.121 193.633C237.121 218.832 217.634 239.327 190.587 239.327ZM166.732 193.633C166.732 207.24 176.14 218.664 190.587 218.664C205.035 218.664 214.442 207.24 214.442 193.633C214.442 180.025 205.035 168.434 190.587 168.434C176.14 168.434 166.732 180.025 166.732 193.633Z" fill="white"/>
<path d="M229.135 271.021L228.933 250.73H233.301C237.668 250.73 240.356 248.21 240.356 242.667V149.935H263.035V243.842C263.035 262.826 253.628 270.889 236.324 270.889L229.135 271.021ZM238.172 129.271C238.172 122.048 244.052 116 251.78 116C259.675 116 265.387 122.048 265.387 129.271C265.387 136.831 259.675 142.711 251.78 142.711C244.052 142.711 238.172 136.663 238.172 129.271Z" fill="white"/>
<path d="M311.642 239.327C284.595 239.327 266.452 218.832 266.452 193.633C266.452 168.434 285.435 147.603 311.642 147.603C337.849 147.603 355.992 168.434 355.992 193.633C355.992 196.153 355.824 198.841 355.32 201.697H289.971C292.491 211.944 300.218 219.168 311.642 219.168C321.385 219.168 328.945 214.128 332.977 207.408L350.616 220.68C343.56 231.599 328.945 239.327 311.642 239.327ZM289.971 184.729H333.145C330.625 174.986 322.393 167.09 311.306 167.09C300.554 167.09 292.491 174.314 289.971 184.729Z" fill="white"/>
<path d="M399.742 239.327C374.711 239.327 354.72 218.832 354.72 193.465C354.72 168.098 374.207 147.771 400.918 147.603C416.877 147.435 429.813 153.651 437.205 163.898L419.733 178.178C415.702 172.13 408.982 168.266 401.254 168.266C386.807 168.266 377.399 179.857 377.399 193.465C377.399 207.072 387.311 218.664 401.758 218.664C410.494 218.664 416.205 214.296 420.741 208.248L437.205 222.528C428.973 233.111 416.877 239.327 399.742 239.327Z" fill="white"/>
<path d="M472.553 237.143C455.249 237.143 445.842 229.079 445.842 210.096V169.106H433.578V149.787H445.842V132.148L468.521 129.796V149.787H487V169.106H468.521V208.92C468.521 214.464 471.209 216.984 475.577 216.984H484.984V237.143H472.553Z" fill="white"/>
</g>
<g clip-path="url(#clip0_1339_327)">
<path d="M5 115.66V0H77.4258V38.2499H118.229V69.2141H152.912V115.66H5Z" fill="white"/>
<path d="M29.8285 31.2601C29.5887 33.1302 28.9414 34.4968 27.8865 35.3599C26.8316 36.223 25.465 36.6546 23.7867 36.6546C21.9886 36.6546 20.5261 36.211 19.3992 35.3239C18.2964 34.4129 17.7449 33.1182 17.7449 31.4399V23.3843H15.4433V20.0757H17.7449V15.1488H22.3841V20.0757H28.2101V23.3843H22.3841V30.6488C22.3841 32.0633 23.0315 32.7706 24.3261 32.7706C24.6138 32.7706 24.9974 32.6507 25.477 32.4109C25.9804 32.1472 26.3041 31.416 26.4479 30.2172L29.8285 31.2601ZM49.4439 36.2949H40.4892V32.8065H42.647V27.1604C42.647 25.7698 42.3952 24.7748 41.8917 24.1754C41.4122 23.5761 40.717 23.2764 39.8059 23.2764C38.751 23.2764 37.9238 23.6 37.3245 24.2474C36.7491 24.8947 36.4374 25.7458 36.3894 26.8007V32.8065H38.5472V36.2949H29.5925V32.8065H31.7502V15.0768H29.5925V11.5525H36.3894V22.5571C37.4683 20.687 39.2065 19.752 41.604 19.752C43.1385 19.752 44.4691 20.2075 45.5959 21.1186C46.7228 22.0297 47.2862 23.4442 47.2862 25.3622V32.8065H49.4439V36.2949ZM66.0248 31.1882C65.9049 32.6267 65.1976 33.8974 63.903 35.0003C62.6083 36.1031 60.7982 36.6546 58.4726 36.6546C56.0511 36.6546 54.0492 35.9713 52.4668 34.6047C50.9084 33.2381 50.1292 31.2002 50.1292 28.491C50.1292 25.9976 50.8365 23.9237 52.251 22.2694C53.6895 20.5911 55.6915 19.752 58.2568 19.752C60.5105 19.752 62.3326 20.3993 63.7232 21.694C65.1377 22.9887 65.857 24.6909 65.8809 26.8007C65.8809 27.5919 65.797 28.3711 65.6292 29.1383H54.9842C55.2479 31.7037 56.5186 32.9863 58.7963 32.9863C60.043 32.9863 60.8821 32.6866 61.3137 32.0873C61.7692 31.4879 62.0449 30.9484 62.1408 30.4689L66.0248 31.1882ZM61.0979 26.4411C61.1938 25.6259 61.014 24.8587 60.5584 24.1395C60.1269 23.4202 59.3597 23.0606 58.2568 23.0606C57.2978 23.0606 56.5546 23.3723 56.0271 23.9956C55.4997 24.619 55.164 25.4341 55.0202 26.4411H61.0979ZM36.122 66.2949H27.1672V62.8065H29.325V57.1604C29.325 55.7698 29.0852 54.7748 28.6057 54.1754C28.1502 53.5761 27.4669 53.2764 26.5558 53.2764C25.453 53.2764 24.6019 53.624 24.0025 54.3193C23.4031 54.9906 23.0914 55.8777 23.0674 56.9805V62.8065H25.2252V66.2949H16.2705V62.8065H18.4282V53.6H16.0906V50.0757H23.0674V52.5571C24.1463 50.687 25.8845 49.752 28.2821 49.752C29.8165 49.752 31.1471 50.2075 32.2739 51.1186C33.4008 52.0297 33.9642 53.4442 33.9642 55.3622V62.8065H36.122V66.2949ZM52.6567 61.1882C52.5368 62.6267 51.8296 63.8974 50.5349 65.0003C49.2403 66.1031 47.4301 66.6546 45.1045 66.6546C42.683 66.6546 40.6811 65.9713 39.0987 64.6047C37.5403 63.2381 36.7611 61.2002 36.7611 58.491C36.7611 55.9976 37.4684 53.9237 38.8829 52.2694C40.3215 50.5911 42.3234 49.752 44.8887 49.752C47.1424 49.752 48.9645 50.3993 50.3551 51.694C51.7696 52.9887 52.4889 54.6909 52.5129 56.8007C52.5129 57.5919 52.429 58.3711 52.2611 59.1383H41.6161C41.8799 61.7037 43.1505 62.9863 45.4282 62.9863C46.6749 62.9863 47.514 62.6866 47.9456 62.0873C48.4011 61.4879 48.6768 60.9484 48.7727 60.4689L52.6567 61.1882ZM47.7298 56.4411C47.8257 55.6259 47.6459 54.8587 47.1904 54.1395C46.7588 53.4202 45.9916 53.0606 44.8887 53.0606C43.9297 53.0606 43.1865 53.3723 42.659 53.9956C42.1316 54.619 41.7959 55.4341 41.6521 56.4411H47.7298ZM71.6594 66.2949H63.4959V62.8065H64.6826L62.3091 60.2532L59.9715 62.8065H61.0144V66.2949H53.4263V62.8065H55.656L60.1154 58.3112L55.2244 53.5641H53.6061V50.0757H61.8056V53.5641H60.6908L62.8845 55.9736L65.2221 53.5641H64.1432V50.0757H71.1919V53.5641H69.5736L65.1502 57.8077L70.0771 62.8065H71.6594V66.2949ZM92.1622 66.2949H85.1854V63.8135C84.1065 65.6836 82.3683 66.6186 79.9708 66.6186C78.4364 66.6186 77.1057 66.1631 75.9789 65.252C74.8521 64.3409 74.2887 62.9264 74.2887 61.0084V53.5641H72.1309V50.0757H78.9279V59.2102C78.9279 60.6248 79.1556 61.6317 79.6112 62.2311C80.0907 62.8065 80.7859 63.0942 81.697 63.0942C82.7999 63.0942 83.651 62.7346 84.2504 62.0153C84.8737 61.2961 85.1854 60.373 85.1854 59.2462V53.5641H82.5601V50.0757H89.8246V62.8065H92.1622V66.2949ZM107.769 61.332C107.769 63.1302 107.049 64.4728 105.611 65.3599C104.196 66.223 102.35 66.6546 100.073 66.6546C98.8978 66.6546 97.7111 66.5347 96.5123 66.2949C95.3375 66.0312 94.2107 65.6236 93.1318 65.0722L93.7791 60.5409L97.3754 60.9365V62.9504C97.807 63.0942 98.2625 63.1901 98.742 63.2381C99.2215 63.2621 99.5811 63.274 99.8209 63.274C100.708 63.274 101.475 63.1302 102.122 62.8425C102.77 62.5548 103.093 62.1232 103.093 61.5478C103.093 60.8525 102.602 60.397 101.619 60.1812C100.636 59.9655 99.4972 59.7497 98.2025 59.5339C96.9079 59.3181 95.7691 58.8746 94.7861 58.2033C93.8031 57.532 93.3116 56.3931 93.3116 54.7868C93.3116 52.7969 94.0788 51.4662 95.6132 50.7949C97.1716 50.0997 98.778 49.752 100.432 49.752C102.59 49.752 104.616 50.2435 106.51 51.2265L106.906 55.3622L103.309 55.7578L103.022 53.4921C102.23 53.2284 101.379 53.0966 100.468 53.0966C99.8688 53.0966 99.3534 53.2284 98.9218 53.4921C98.5142 53.7319 98.3104 54.1155 98.3104 54.643C98.3104 55.3382 98.778 55.8058 99.713 56.0455C100.672 56.2613 101.775 56.4771 103.022 56.6928C104.292 56.9086 105.395 57.3522 106.33 58.0235C107.289 58.6708 107.769 59.7737 107.769 61.332ZM34.9711 87.8077C34.9711 90.2052 34.3358 92.2791 33.0651 94.0293C31.8184 95.7795 29.9723 96.6546 27.5268 96.6546C25.2492 96.6546 23.5949 95.8514 22.564 94.245V100.359H25.441V103.955H15.767V100.359H17.9248V83.5641H15.5872V80.0757H22.564V83.1685C22.9955 82.2334 23.6428 81.4303 24.506 80.759C25.3691 80.0877 26.5439 79.752 28.0303 79.752C30.0922 79.752 31.7585 80.4593 33.0292 81.8738C34.3238 83.2884 34.9711 85.2663 34.9711 87.8077ZM30.1521 88.2752C30.1521 86.6928 29.7925 85.4941 29.0732 84.6789C28.378 83.8398 27.4789 83.4202 26.376 83.4202C25.1773 83.4202 24.2542 83.8638 23.6069 84.7508C22.9835 85.6379 22.6479 86.7648 22.5999 88.1314L22.564 88.7068C22.564 90.0254 22.9116 91.0683 23.6069 91.8355C24.3022 92.6027 25.2252 92.9863 26.376 92.9863C27.4789 92.9863 28.378 92.6027 29.0732 91.8355C29.7925 91.0683 30.1521 89.8815 30.1521 88.2752ZM46.5256 79.8599C46.9811 79.8599 47.4846 79.9318 48.0361 80.0757C48.6115 80.1956 49.1749 80.4233 49.7263 80.759L50.4456 86.4411L46.9212 86.8367L46.3098 84.0676C45.8303 83.7798 45.4108 83.636 45.0511 83.636C44.5237 83.636 44.0562 83.8398 43.6486 84.2474C43.265 84.6549 43.0732 85.2543 43.0732 86.0455V92.8065H45.9502V96.2949H36.2762V92.8065H38.434V83.6H36.0964V80.0757H42.7136V83.1685C42.9773 82.2334 43.3969 81.4543 43.9723 80.8309C44.5716 80.1836 45.4228 79.8599 46.5256 79.8599ZM68.6574 88.2033C68.6574 90.7686 67.8182 92.8185 66.14 94.3529C64.4617 95.8873 62.3279 96.6546 59.7386 96.6546C57.2452 96.6546 55.2073 95.9353 53.6249 94.4968C52.0665 93.0343 51.2873 90.9964 51.2873 88.3831C51.2873 86.0095 52.0066 83.9717 53.4451 82.2694C54.8836 80.5672 57.0654 79.716 59.9903 79.716C62.9153 79.716 65.0851 80.5672 66.4996 82.2694C67.9381 83.9477 68.6574 85.9256 68.6574 88.2033ZM63.8743 88.0594C63.8743 86.4051 63.4907 85.1944 62.7235 84.4272C61.9563 83.66 61.0213 83.2764 59.9184 83.2764C58.7196 83.2764 57.7726 83.7079 57.0773 84.571C56.406 85.4102 56.0704 86.5969 56.0704 88.1314C56.0704 89.5219 56.3821 90.6967 57.0054 91.6557C57.6527 92.6147 58.6118 93.0942 59.8824 93.0942C61.0812 93.0942 62.0402 92.6507 62.7595 91.7636C63.5027 90.8525 63.8743 89.6178 63.8743 88.0594ZM71.8019 77.1986V72.3796H76.4411V77.1986H71.8019ZM76.4411 95.7195C76.4411 98.7883 75.8777 101.054 74.7508 102.516C73.624 104.003 71.4902 104.59 68.3494 104.279L68.2056 101.222C69.1886 101.222 70.0277 100.946 70.723 100.395C71.4423 99.8672 71.8019 98.3088 71.8019 95.7195V83.6H69.2845V80.0757H76.4411V95.7195ZM94.4818 91.1882C94.3619 92.6267 93.6547 93.8974 92.36 95.0003C91.0653 96.1031 89.2552 96.6546 86.9296 96.6546C84.5081 96.6546 82.5062 95.9713 80.9238 94.6047C79.3654 93.2381 78.5862 91.2002 78.5862 88.491C78.5862 85.9976 79.2935 83.9237 80.708 82.2694C82.1465 80.5911 84.1485 79.752 86.7138 79.752C88.9675 79.752 90.7896 80.3993 92.1802 81.694C93.5947 82.9887 94.314 84.6909 94.338 86.8007C94.338 87.5919 94.254 88.3711 94.0862 89.1383H83.4412C83.7049 91.7037 84.9756 92.9863 87.2533 92.9863C88.5 92.9863 89.3391 92.6866 89.7707 92.0873C90.2262 91.4879 90.5019 90.9484 90.5978 90.4689L94.4818 91.1882ZM89.5549 86.4411C89.6508 85.6259 89.471 84.8587 89.0154 84.1395C88.5839 83.4202 87.8167 83.0606 86.7138 83.0606C85.7548 83.0606 85.0116 83.3723 84.4841 83.9956C83.9567 84.619 83.621 85.4341 83.4772 86.4411H89.5549ZM111.039 90.2532C110.871 91.7396 110.224 93.1781 109.097 94.5687C107.994 95.9593 106.136 96.6546 103.523 96.6546C101.173 96.6546 99.2312 95.9713 97.6968 94.6047C96.1864 93.2381 95.4312 91.1882 95.4312 88.455C95.4312 85.578 96.2583 83.4082 97.9126 81.9457C99.5669 80.4833 101.569 79.752 103.918 79.752C104.805 79.752 105.753 79.8719 106.759 80.1116C107.79 80.3274 108.797 80.699 109.78 81.2265L110.5 86.1534L106.795 86.549L106.256 83.8877C105.321 83.5761 104.506 83.4202 103.811 83.4202C102.828 83.4202 101.988 83.8038 101.293 84.571C100.598 85.3143 100.25 86.537 100.25 88.2392C100.25 91.404 101.485 92.9863 103.954 92.9863C105.776 92.9863 106.843 91.8355 107.155 89.5339L111.039 90.2532ZM125.665 91.2601C125.425 93.1302 124.778 94.4968 123.723 95.3599C122.668 96.223 121.302 96.6546 119.623 96.6546C117.825 96.6546 116.363 96.211 115.236 95.3239C114.133 94.4129 113.582 93.1182 113.582 91.4399V83.3843H111.28V80.0757H113.582V75.1488H118.221V80.0757H124.047V83.3843H118.221V90.6488C118.221 92.0633 118.868 92.7706 120.163 92.7706C120.451 92.7706 120.834 92.6507 121.314 92.4109C121.817 92.1472 122.141 91.416 122.285 90.2172L125.665 91.2601ZM126.113 98.7404H141.648V101.797H126.113V98.7404Z" fill="black"/>
</g>
<defs>
<filter id="filter0_di_1339_327" x="0.627011" y="111.627" width="497.837" height="376.265" filterUnits="userSpaceOnUse" color-interpolation-filters="sRGB">
<feFlood flood-opacity="0" result="BackgroundImageFix"/>
<feColorMatrix in="SourceAlpha" type="matrix" values="0 0 0 0 0 0 0 0 0 0 0 0 0 0 0 0 0 0 127 0" result="hardAlpha"/>
<feOffset dx="3.54567" dy="3.54567"/>
<feGaussianBlur stdDeviation="3.95933"/>
<feComposite in2="hardAlpha" operator="out"/>
<feColorMatrix type="matrix" values="0 0 0 0 0 0 0 0 0 0 0 0 0 0 0 0 0 0 0.93 0"/>
<feBlend mode="normal" in2="BackgroundImageFix" result="effect1_dropShadow_1339_327"/>
<feBlend mode="normal" in="SourceGraphic" in2="effect1_dropShadow_1339_327" result="shape"/>
<feColorMatrix in="SourceAlpha" type="matrix" values="0 0 0 0 0 0 0 0 0 0 0 0 0 0 0 0 0 0 127 0" result="hardAlpha"/>
<feOffset dx="-3.54567" dy="-3.54567"/>
<feGaussianBlur stdDeviation="3.72295"/>
<feComposite in2="hardAlpha" operator="arithmetic" k2="-1" k3="1"/>
<feColorMatrix type="matrix" values="0 0 0 0 0.407755 0 0 0 0 0.407755 0 0 0 0 0.407755 0 0 0 0.69 0"/>
<feBlend mode="normal" in2="shape" result="effect2_innerShadow_1339_327"/>
</filter>
<clipPath id="clip0_1339_327">
<rect width="148" height="115.812" fill="white" transform="translate(5)"/>
</clipPath>
</defs>
</svg>
