<svg width="127" height="99" viewBox="0 0 127 99" fill="none" xmlns="http://www.w3.org/2000/svg">
<path d="M0 99V0H61.9932V32.7402H96.9189V59.2441H126.606V99H0Z" fill="white"/>
<path d="M21.2495 27.6448C21.0443 29.2455 20.4902 30.4152 19.5873 31.154C18.6843 31.8928 17.5146 32.2622 16.078 32.2622C14.5389 32.2622 13.2871 31.8825 12.3226 31.1232C11.3786 30.3434 10.9066 29.2352 10.9066 27.7987V20.9034H8.9365V18.0714H10.9066V13.8542H14.8775V18.0714H19.8643V20.9034H14.8775V27.1215C14.8775 28.3323 15.4316 28.9377 16.5398 28.9377C16.786 28.9377 17.1144 28.835 17.5248 28.6298C17.9558 28.4041 18.2328 27.7782 18.356 26.7521L21.2495 27.6448ZM38.0395 31.9543H30.3746V28.9684H32.2216V24.1356C32.2216 22.9453 32.0061 22.0937 31.5751 21.5806C31.1647 21.0676 30.5696 20.8111 29.7897 20.8111C28.8868 20.8111 28.1788 21.0881 27.6657 21.6422C27.1732 22.1963 26.9064 22.9248 26.8654 23.8278V28.9684H28.7124V31.9543H21.0475V28.9684H22.8945V13.7926H21.0475V10.776H26.8654V20.1954C27.7889 18.5947 29.2767 17.7944 31.3289 17.7944C32.6423 17.7944 33.7812 18.1843 34.7457 18.9641C35.7102 19.7439 36.1925 20.9547 36.1925 22.5965V28.9684H38.0395V31.9543ZM52.2319 27.5832C52.1293 28.8145 51.5239 29.9022 50.4157 30.8462C49.3075 31.7902 47.7582 32.2622 45.7676 32.2622C43.6949 32.2622 41.9813 31.6773 40.6269 30.5076C39.293 29.3378 38.626 27.5935 38.626 25.2745C38.626 23.1403 39.2314 21.3652 40.4422 19.9492C41.6735 18.5126 43.387 17.7944 45.5829 17.7944C47.5119 17.7944 49.0715 18.3485 50.2618 19.4566C51.4726 20.5648 52.0882 22.0218 52.1088 23.8278C52.1088 24.505 52.0369 25.1719 51.8933 25.8286H42.7817C43.0074 28.0244 44.095 29.1224 46.0446 29.1224C47.1117 29.1224 47.83 28.8658 48.1994 28.3528C48.5893 27.8397 48.8253 27.378 48.9074 26.9676L52.2319 27.5832ZM48.0147 23.5199C48.0968 22.8222 47.9429 22.1655 47.5529 21.5498C47.1836 20.9342 46.5269 20.6264 45.5829 20.6264C44.762 20.6264 44.1258 20.8932 43.6743 21.4267C43.2229 21.9603 42.9356 22.658 42.8124 23.5199H48.0147ZM26.6365 57.9543H18.9716V54.9684H20.8186V50.1356C20.8186 48.9453 20.6133 48.0937 20.2029 47.5806C19.813 47.0676 19.2281 46.8111 18.4483 46.8111C17.5043 46.8111 16.7758 47.1086 16.2627 47.7038C15.7497 48.2784 15.4829 49.0377 15.4624 49.9817V54.9684H17.3093V57.9543H9.64449V54.9684H11.4914V47.0881H9.49058V44.0714H15.4624V46.1954C16.3859 44.5947 17.8737 43.7944 19.9259 43.7944C21.2392 43.7944 22.3782 44.1843 23.3427 44.9641C24.3072 45.7439 24.7895 46.9547 24.7895 48.5965V54.9684H26.6365V57.9543ZM40.7894 53.5832C40.6868 54.8145 40.0814 55.9022 38.9733 56.8462C37.8651 57.7902 36.3157 58.2622 34.3251 58.2622C32.2524 58.2622 30.5389 57.6773 29.1844 56.5076C27.8505 55.3378 27.1836 53.5935 27.1836 51.2745C27.1836 49.1403 27.789 47.3652 28.9997 45.9492C30.231 44.5126 31.9446 43.7944 34.1404 43.7944C36.0695 43.7944 37.6291 44.3485 38.8194 45.4566C40.0301 46.5648 40.6458 48.0218 40.6663 49.8278C40.6663 50.505 40.5945 51.1719 40.4508 51.8286H31.3392C31.5649 54.0244 32.6526 55.1224 34.6022 55.1224C35.6693 55.1224 36.3875 54.8658 36.7569 54.3528C37.1468 53.8397 37.3828 53.378 37.4649 52.9676L40.7894 53.5832ZM36.5722 49.5199C36.6543 48.8222 36.5004 48.1655 36.1105 47.5498C35.7411 46.9342 35.0844 46.6264 34.1404 46.6264C33.3195 46.6264 32.6834 46.8932 32.2319 47.4267C31.7804 47.9603 31.4931 48.658 31.37 49.5199H36.5722ZM57.0549 57.9543H50.0673V54.9684H51.0831L49.0514 52.7829L47.0506 54.9684H47.9433V57.9543H41.4481V54.9684H43.3567L47.1737 51.1206L42.9873 47.0573H41.6021V44.0714H48.6205V47.0573H47.6662L49.544 49.1198L51.5448 47.0573H50.6213V44.0714H56.6547V47.0573H55.2695L51.4833 50.6897L55.7005 54.9684H57.0549V57.9543ZM74.6043 57.9543H68.6325V55.8304C67.709 57.431 66.2212 58.2314 64.169 58.2314C62.8556 58.2314 61.7167 57.8415 60.7522 57.0617C59.7876 56.2818 59.3054 55.071 59.3054 53.4293V47.0573H57.4584V44.0714H63.2763V51.8902C63.2763 53.101 63.4713 53.9629 63.8612 54.4759C64.2716 54.9684 64.8668 55.2147 65.6466 55.2147C66.5906 55.2147 67.3191 54.9069 67.8321 54.2912C68.3657 53.6756 68.6325 52.8855 68.6325 51.921V47.0573H66.3854V44.0714H72.6034V54.9684H74.6043V57.9543ZM87.9627 53.7064C87.9627 55.2455 87.3471 56.3947 86.1158 57.154C84.905 57.8928 83.3248 58.2622 81.3753 58.2622C80.3697 58.2622 79.3539 58.1596 78.3278 57.9543C77.3222 57.7286 76.3577 57.3797 75.4342 56.9077L75.9883 53.0291L79.0666 53.3677V55.0916C79.436 55.2147 79.8259 55.2968 80.2363 55.3378C80.6467 55.3584 80.9546 55.3686 81.1598 55.3686C81.9191 55.3686 82.5758 55.2455 83.1299 54.9992C83.6839 54.753 83.961 54.3836 83.961 53.8911C83.961 53.2959 83.5403 52.906 82.6989 52.7213C81.8575 52.5366 80.8827 52.3519 79.7746 52.1672C78.6664 51.9825 77.6916 51.6029 76.8502 51.0283C76.0088 50.4537 75.5881 49.4789 75.5881 48.1039C75.5881 46.4006 76.2448 45.2617 77.5582 44.6871C78.8921 44.0919 80.2671 43.7944 81.6831 43.7944C83.53 43.7944 85.2641 44.2151 86.8853 45.0565L87.2239 48.5965L84.1457 48.9351L83.8994 46.9958C83.2222 46.77 82.4937 46.6572 81.7139 46.6572C81.2008 46.6572 80.7596 46.77 80.3902 46.9958C80.0413 47.201 79.8669 47.5293 79.8669 47.9808C79.8669 48.5759 80.2671 48.9761 81.0674 49.1813C81.8883 49.366 82.8323 49.5507 83.8994 49.7354C84.9871 49.9201 85.9311 50.2998 86.7314 50.8744C87.5523 51.4284 87.9627 52.3724 87.9627 53.7064ZM25.6514 76.6897C25.6514 78.7418 25.1076 80.517 24.0199 82.015C22.9528 83.5131 21.3726 84.2622 19.2794 84.2622C17.3299 84.2622 15.9139 83.5747 15.0314 82.1997V87.4328H17.494V90.511H9.21354V87.4328H11.0605V73.0573H9.05963V70.0714H15.0314V72.7187C15.4008 71.9184 15.9549 71.2309 16.6937 70.6563C17.4325 70.0817 18.438 69.7944 19.7104 69.7944C21.4752 69.7944 22.9015 70.3998 23.9892 71.6105C25.0973 72.8213 25.6514 74.5144 25.6514 76.6897ZM21.5266 77.0898C21.5266 75.7354 21.2187 74.7093 20.6031 74.0116C20.0079 73.2933 19.2384 72.9342 18.2944 72.9342C17.2683 72.9342 16.4782 73.3138 15.9241 74.0732C15.3906 74.8325 15.1033 75.797 15.0622 76.9667L15.0314 77.4592C15.0314 78.5879 15.329 79.4806 15.9241 80.1373C16.5193 80.794 17.3093 81.1224 18.2944 81.1224C19.2384 81.1224 20.0079 80.794 20.6031 80.1373C21.2187 79.4806 21.5266 78.4648 21.5266 77.0898ZM35.5415 69.8867C35.9314 69.8867 36.3624 69.9483 36.8344 70.0714C37.3269 70.174 37.8091 70.369 38.2811 70.6563L38.8968 75.5199L35.8801 75.8585L35.3568 73.4883C34.9464 73.242 34.5872 73.1189 34.2794 73.1189C33.8279 73.1189 33.4278 73.2933 33.0789 73.6422C32.7506 73.9911 32.5864 74.5041 32.5864 75.1813V80.9684H35.049V83.9543H26.7685V80.9684H28.6154V73.0881H26.6146V70.0714H32.2786V72.7187C32.5043 71.9184 32.8634 71.2514 33.3559 70.7179C33.869 70.1638 34.5975 69.8867 35.5415 69.8867ZM54.4853 77.0283C54.4853 79.2241 53.767 80.9787 52.3305 82.2921C50.894 83.6055 49.0675 84.2622 46.8512 84.2622C44.7169 84.2622 42.9726 83.6465 41.6182 82.4152C40.2843 81.1634 39.6173 79.4191 39.6173 77.1822C39.6173 75.1505 40.233 73.4062 41.4643 71.9492C42.6956 70.4921 44.563 69.7636 47.0667 69.7636C49.5703 69.7636 51.4275 70.4921 52.6383 71.9492C53.8696 73.3857 54.4853 75.0787 54.4853 77.0283ZM50.3912 76.9051C50.3912 75.4891 50.0628 74.4528 49.4061 73.7961C48.7495 73.1394 47.9491 72.8111 47.0051 72.8111C45.979 72.8111 45.1684 73.1805 44.5733 73.9192C43.9987 74.6375 43.7114 75.6533 43.7114 76.9667C43.7114 78.157 43.9782 79.1625 44.5117 79.9834C45.0658 80.8043 45.8867 81.2147 46.9743 81.2147C48.0004 81.2147 48.8213 80.835 49.4369 80.0757C50.0731 79.2959 50.3912 78.2391 50.3912 76.9051ZM57.1768 67.6088V63.484H61.1478V67.6088H57.1768ZM61.1478 83.4618C61.1478 86.0886 60.6655 88.0279 59.701 89.2797C58.7365 90.5521 56.91 91.0549 54.2217 90.7881L54.0986 88.1716C54.9399 88.1716 55.6582 87.9356 56.2533 87.4636C56.869 87.0121 57.1768 85.6782 57.1768 83.4618V73.0881H55.022V70.0714H61.1478V83.4618ZM76.5898 79.5832C76.4872 80.8145 75.8818 81.9022 74.7736 82.8462C73.6654 83.7902 72.116 84.2622 70.1254 84.2622C68.0527 84.2622 66.3392 83.6773 64.9848 82.5076C63.6508 81.3378 62.9839 79.5935 62.9839 77.2745C62.9839 75.1403 63.5893 73.3652 64.8001 71.9492C66.0314 70.5126 67.7449 69.7944 69.9407 69.7944C71.8698 69.7944 73.4294 70.3485 74.6197 71.4566C75.8305 72.5648 76.4461 74.0218 76.4666 75.8278C76.4666 76.505 76.3948 77.1719 76.2512 77.8286H67.1395C67.3653 80.0244 68.4529 81.1224 70.4025 81.1224C71.4696 81.1224 72.1879 80.8658 72.5573 80.3528C72.9472 79.8397 73.1832 79.378 73.2653 78.9676L76.5898 79.5832ZM72.3726 75.5199C72.4546 74.8222 72.3007 74.1655 71.9108 73.5498C71.5414 72.9342 70.8847 72.6264 69.9407 72.6264C69.1199 72.6264 68.4837 72.8932 68.0322 73.4267C67.5807 73.9603 67.2934 74.658 67.1703 75.5199H72.3726ZM90.762 78.7829C90.6184 80.0552 90.0643 81.2865 89.0997 82.4768C88.1557 83.667 86.5653 84.2622 84.3285 84.2622C82.3173 84.2622 80.6551 83.6773 79.3417 82.5076C78.0488 81.3378 77.4024 79.5832 77.4024 77.2438C77.4024 74.7811 78.1104 72.9239 79.5264 71.6721C80.9424 70.4203 82.6559 69.7944 84.6671 69.7944C85.4264 69.7944 86.237 69.897 87.0989 70.1022C87.9813 70.2869 88.8432 70.605 89.6846 71.0565L90.3003 75.2737L87.1297 75.6123L86.6679 73.3344C85.8676 73.0676 85.1698 72.9342 84.5747 72.9342C83.7333 72.9342 83.0151 73.2625 82.4199 73.9192C81.8248 74.5554 81.5272 75.602 81.5272 77.0591C81.5272 79.7679 82.5841 81.1224 84.6978 81.1224C86.2575 81.1224 87.1707 80.1373 87.4375 78.1672L90.762 78.7829ZM103.281 79.6448C103.076 81.2455 102.522 82.4152 101.619 83.154C100.716 83.8928 99.5464 84.2622 98.1099 84.2622C96.5708 84.2622 95.3189 83.8825 94.3544 83.1232C93.4104 82.3434 92.9384 81.2352 92.9384 79.7987V72.9034H90.9683V70.0714H92.9384V65.8542H96.9094V70.0714H101.896V72.9034H96.9094V79.1215C96.9094 80.3323 97.4635 80.9377 98.5716 80.9377C98.8179 80.9377 99.1462 80.835 99.5567 80.6298C99.9876 80.4041 100.265 79.7782 100.388 78.7521L103.281 79.6448ZM103.664 86.0476H116.962V88.6641H103.664V86.0476Z" fill="black"/>
</svg>
