<svg width="148" height="116" viewBox="0 0 148 116" fill="none" xmlns="http://www.w3.org/2000/svg">
<g clip-path="url(#clip0_1339_322)">
<path d="M0 115.66V0H72.4258V38.2499H113.229V69.2141H147.912V115.66H0Z" fill="white"/>
<path d="M24.8285 31.2601C24.5887 33.1302 23.9414 34.4968 22.8865 35.3599C21.8316 36.223 20.465 36.6546 18.7867 36.6546C16.9886 36.6546 15.5261 36.211 14.3992 35.3239C13.2964 34.4129 12.7449 33.1182 12.7449 31.4399V23.3843H10.4433V20.0757H12.7449V15.1488H17.3841V20.0757H23.2101V23.3843H17.3841V30.6488C17.3841 32.0633 18.0315 32.7706 19.3261 32.7706C19.6138 32.7706 19.9974 32.6507 20.477 32.4109C20.9804 32.1472 21.3041 31.416 21.4479 30.2172L24.8285 31.2601ZM44.4439 36.2949H35.4892V32.8065H37.647V27.1604C37.647 25.7698 37.3952 24.7748 36.8917 24.1754C36.4122 23.5761 35.717 23.2764 34.8059 23.2764C33.751 23.2764 32.9238 23.6 32.3245 24.2474C31.7491 24.8947 31.4374 25.7458 31.3894 26.8007V32.8065H33.5472V36.2949H24.5925V32.8065H26.7502V15.0768H24.5925V11.5525H31.3894V22.5571C32.4683 20.687 34.2065 19.752 36.604 19.752C38.1385 19.752 39.4691 20.2075 40.5959 21.1186C41.7228 22.0297 42.2862 23.4442 42.2862 25.3622V32.8065H44.4439V36.2949ZM61.0248 31.1882C60.9049 32.6267 60.1976 33.8974 58.903 35.0003C57.6083 36.1031 55.7982 36.6546 53.4726 36.6546C51.0511 36.6546 49.0492 35.9713 47.4668 34.6047C45.9084 33.2381 45.1292 31.2002 45.1292 28.491C45.1292 25.9976 45.8365 23.9237 47.251 22.2694C48.6895 20.5911 50.6915 19.752 53.2568 19.752C55.5105 19.752 57.3326 20.3993 58.7232 21.694C60.1377 22.9887 60.857 24.6909 60.8809 26.8007C60.8809 27.5919 60.797 28.3711 60.6292 29.1383H49.9842C50.2479 31.7037 51.5186 32.9863 53.7963 32.9863C55.043 32.9863 55.8821 32.6866 56.3137 32.0873C56.7692 31.4879 57.0449 30.9484 57.1408 30.4689L61.0248 31.1882ZM56.0979 26.4411C56.1938 25.6259 56.014 24.8587 55.5584 24.1395C55.1269 23.4202 54.3597 23.0606 53.2568 23.0606C52.2978 23.0606 51.5546 23.3723 51.0271 23.9956C50.4997 24.619 50.164 25.4341 50.0202 26.4411H56.0979ZM31.122 66.2949H22.1672V62.8065H24.325V57.1604C24.325 55.7698 24.0852 54.7748 23.6057 54.1754C23.1502 53.5761 22.4669 53.2764 21.5558 53.2764C20.453 53.2764 19.6019 53.624 19.0025 54.3193C18.4031 54.9906 18.0914 55.8777 18.0674 56.9805V62.8065H20.2252V66.2949H11.2705V62.8065H13.4282V53.6H11.0906V50.0757H18.0674V52.5571C19.1463 50.687 20.8845 49.752 23.2821 49.752C24.8165 49.752 26.1471 50.2075 27.2739 51.1186C28.4008 52.0297 28.9642 53.4442 28.9642 55.3622V62.8065H31.122V66.2949ZM47.6567 61.1882C47.5368 62.6267 46.8296 63.8974 45.5349 65.0003C44.2403 66.1031 42.4301 66.6546 40.1045 66.6546C37.683 66.6546 35.6811 65.9713 34.0987 64.6047C32.5403 63.2381 31.7611 61.2002 31.7611 58.491C31.7611 55.9976 32.4684 53.9237 33.8829 52.2694C35.3215 50.5911 37.3234 49.752 39.8887 49.752C42.1424 49.752 43.9645 50.3993 45.3551 51.694C46.7696 52.9887 47.4889 54.6909 47.5129 56.8007C47.5129 57.5919 47.429 58.3711 47.2611 59.1383H36.6161C36.8799 61.7037 38.1505 62.9863 40.4282 62.9863C41.6749 62.9863 42.514 62.6866 42.9456 62.0873C43.4011 61.4879 43.6768 60.9484 43.7727 60.4689L47.6567 61.1882ZM42.7298 56.4411C42.8257 55.6259 42.6459 54.8587 42.1904 54.1395C41.7588 53.4202 40.9916 53.0606 39.8887 53.0606C38.9297 53.0606 38.1865 53.3723 37.659 53.9956C37.1316 54.619 36.7959 55.4341 36.6521 56.4411H42.7298ZM66.6594 66.2949H58.4959V62.8065H59.6826L57.3091 60.2532L54.9715 62.8065H56.0144V66.2949H48.4263V62.8065H50.656L55.1154 58.3112L50.2244 53.5641H48.6061V50.0757H56.8056V53.5641H55.6908L57.8845 55.9736L60.2221 53.5641H59.1432V50.0757H66.1919V53.5641H64.5736L60.1502 57.8077L65.0771 62.8065H66.6594V66.2949ZM87.1622 66.2949H80.1854V63.8135C79.1065 65.6836 77.3683 66.6186 74.9708 66.6186C73.4364 66.6186 72.1057 66.1631 70.9789 65.252C69.8521 64.3409 69.2887 62.9264 69.2887 61.0084V53.5641H67.1309V50.0757H73.9279V59.2102C73.9279 60.6248 74.1556 61.6317 74.6112 62.2311C75.0907 62.8065 75.7859 63.0942 76.697 63.0942C77.7999 63.0942 78.651 62.7346 79.2504 62.0153C79.8737 61.2961 80.1854 60.373 80.1854 59.2462V53.5641H77.5601V50.0757H84.8246V62.8065H87.1622V66.2949ZM102.769 61.332C102.769 63.1302 102.049 64.4728 100.611 65.3599C99.1964 66.223 97.3503 66.6546 95.0726 66.6546C93.8978 66.6546 92.7111 66.5347 91.5123 66.2949C90.3375 66.0312 89.2107 65.6236 88.1318 65.0722L88.7791 60.5409L92.3754 60.9365V62.9504C92.807 63.0942 93.2625 63.1901 93.742 63.2381C94.2215 63.2621 94.5811 63.274 94.8209 63.274C95.708 63.274 96.4752 63.1302 97.1225 62.8425C97.7698 62.5548 98.0935 62.1232 98.0935 61.5478C98.0935 60.8525 97.602 60.397 96.619 60.1812C95.636 59.9655 94.4972 59.7497 93.2025 59.5339C91.9079 59.3181 90.7691 58.8746 89.7861 58.2033C88.8031 57.532 88.3116 56.3931 88.3116 54.7868C88.3116 52.7969 89.0788 51.4662 90.6132 50.7949C92.1716 50.0997 93.778 49.752 95.4322 49.752C97.59 49.752 99.6159 50.2435 101.51 51.2265L101.906 55.3622L98.3093 55.7578L98.0216 53.4921C97.2304 53.2284 96.3793 53.0966 95.4682 53.0966C94.8688 53.0966 94.3534 53.2284 93.9218 53.4921C93.5142 53.7319 93.3104 54.1155 93.3104 54.643C93.3104 55.3382 93.778 55.8058 94.713 56.0455C95.672 56.2613 96.7749 56.4771 98.0216 56.6928C99.2923 56.9086 100.395 57.3522 101.33 58.0235C102.289 58.6708 102.769 59.7737 102.769 61.332ZM29.9711 87.8077C29.9711 90.2052 29.3358 92.2791 28.0651 94.0293C26.8184 95.7795 24.9723 96.6546 22.5268 96.6546C20.2492 96.6546 18.5949 95.8514 17.564 94.245V100.359H20.441V103.955H10.767V100.359H12.9248V83.5641H10.5872V80.0757H17.564V83.1685C17.9955 82.2334 18.6428 81.4303 19.506 80.759C20.3691 80.0877 21.5439 79.752 23.0303 79.752C25.0922 79.752 26.7585 80.4593 28.0292 81.8738C29.3238 83.2884 29.9711 85.2663 29.9711 87.8077ZM25.1521 88.2752C25.1521 86.6928 24.7925 85.4941 24.0732 84.6789C23.378 83.8398 22.4789 83.4202 21.376 83.4202C20.1773 83.4202 19.2542 83.8638 18.6069 84.7508C17.9835 85.6379 17.6479 86.7648 17.5999 88.1314L17.564 88.7068C17.564 90.0254 17.9116 91.0683 18.6069 91.8355C19.3022 92.6027 20.2252 92.9863 21.376 92.9863C22.4789 92.9863 23.378 92.6027 24.0732 91.8355C24.7925 91.0683 25.1521 89.8815 25.1521 88.2752ZM41.5256 79.8599C41.9811 79.8599 42.4846 79.9318 43.0361 80.0757C43.6115 80.1956 44.1749 80.4233 44.7263 80.759L45.4456 86.4411L41.9212 86.8367L41.3098 84.0676C40.8303 83.7798 40.4108 83.636 40.0511 83.636C39.5237 83.636 39.0562 83.8398 38.6486 84.2474C38.265 84.6549 38.0732 85.2543 38.0732 86.0455V92.8065H40.9502V96.2949H31.2762V92.8065H33.434V83.6H31.0964V80.0757H37.7136V83.1685C37.9773 82.2334 38.3969 81.4543 38.9723 80.8309C39.5716 80.1836 40.4228 79.8599 41.5256 79.8599ZM63.6574 88.2033C63.6574 90.7686 62.8182 92.8185 61.14 94.3529C59.4617 95.8873 57.3279 96.6546 54.7386 96.6546C52.2452 96.6546 50.2073 95.9353 48.6249 94.4968C47.0665 93.0343 46.2873 90.9964 46.2873 88.3831C46.2873 86.0095 47.0066 83.9717 48.4451 82.2694C49.8836 80.5672 52.0654 79.716 54.9903 79.716C57.9153 79.716 60.0851 80.5672 61.4996 82.2694C62.9381 83.9477 63.6574 85.9256 63.6574 88.2033ZM58.8743 88.0594C58.8743 86.4051 58.4907 85.1944 57.7235 84.4272C56.9563 83.66 56.0213 83.2764 54.9184 83.2764C53.7196 83.2764 52.7726 83.7079 52.0773 84.571C51.406 85.4102 51.0704 86.5969 51.0704 88.1314C51.0704 89.5219 51.3821 90.6967 52.0054 91.6557C52.6527 92.6147 53.6118 93.0942 54.8824 93.0942C56.0812 93.0942 57.0402 92.6507 57.7595 91.7636C58.5027 90.8525 58.8743 89.6178 58.8743 88.0594ZM66.8019 77.1986V72.3796H71.4411V77.1986H66.8019ZM71.4411 95.7195C71.4411 98.7883 70.8777 101.054 69.7508 102.516C68.624 104.003 66.4902 104.59 63.3494 104.279L63.2056 101.222C64.1886 101.222 65.0277 100.946 65.723 100.395C66.4423 99.8672 66.8019 98.3088 66.8019 95.7195V83.6H64.2845V80.0757H71.4411V95.7195ZM89.4818 91.1882C89.3619 92.6267 88.6547 93.8974 87.36 95.0003C86.0653 96.1031 84.2552 96.6546 81.9296 96.6546C79.5081 96.6546 77.5062 95.9713 75.9238 94.6047C74.3654 93.2381 73.5862 91.2002 73.5862 88.491C73.5862 85.9976 74.2935 83.9237 75.708 82.2694C77.1465 80.5911 79.1485 79.752 81.7138 79.752C83.9675 79.752 85.7896 80.3993 87.1802 81.694C88.5947 82.9887 89.314 84.6909 89.338 86.8007C89.338 87.5919 89.254 88.3711 89.0862 89.1383H78.4412C78.7049 91.7037 79.9756 92.9863 82.2533 92.9863C83.5 92.9863 84.3391 92.6866 84.7707 92.0873C85.2262 91.4879 85.5019 90.9484 85.5978 90.4689L89.4818 91.1882ZM84.5549 86.4411C84.6508 85.6259 84.471 84.8587 84.0154 84.1395C83.5839 83.4202 82.8167 83.0606 81.7138 83.0606C80.7548 83.0606 80.0116 83.3723 79.4841 83.9956C78.9567 84.619 78.621 85.4341 78.4772 86.4411H84.5549ZM106.039 90.2532C105.871 91.7396 105.224 93.1781 104.097 94.5687C102.994 95.9593 101.136 96.6546 98.5228 96.6546C96.1732 96.6546 94.2312 95.9713 92.6968 94.6047C91.1864 93.2381 90.4312 91.1882 90.4312 88.455C90.4312 85.578 91.2583 83.4082 92.9126 81.9457C94.5669 80.4833 96.5688 79.752 98.9184 79.752C99.8055 79.752 100.753 79.8719 101.759 80.1116C102.79 80.3274 103.797 80.699 104.78 81.2265L105.5 86.1534L101.795 86.549L101.256 83.8877C100.321 83.5761 99.5058 83.4202 98.8105 83.4202C97.8275 83.4202 96.9884 83.8038 96.2931 84.571C95.5978 85.3143 95.2502 86.537 95.2502 88.2392C95.2502 91.404 96.4849 92.9863 98.9544 92.9863C100.776 92.9863 101.843 91.8355 102.155 89.5339L106.039 90.2532ZM120.665 91.2601C120.425 93.1302 119.778 94.4968 118.723 95.3599C117.668 96.223 116.302 96.6546 114.623 96.6546C112.825 96.6546 111.363 96.211 110.236 95.3239C109.133 94.4129 108.582 93.1182 108.582 91.4399V83.3843H106.28V80.0757H108.582V75.1488H113.221V80.0757H119.047V83.3843H113.221V90.6488C113.221 92.0633 113.868 92.7706 115.163 92.7706C115.451 92.7706 115.834 92.6507 116.314 92.4109C116.817 92.1472 117.141 91.416 117.285 90.2172L120.665 91.2601ZM121.113 98.7404H136.648V101.797H121.113V98.7404Z" fill="black"/>
</g>
<defs>
<clipPath id="clip0_1339_322">
<rect width="148" height="115.812" fill="white"/>
</clipPath>
</defs>
</svg>
