<svg width="913" height="853" viewBox="0 0 913 853" fill="none" xmlns="http://www.w3.org/2000/svg">
<path d="M680.517 368.996L731.147 470.442L695.517 604.942L645.517 503.942L680.517 368.996Z" fill="#B1B1B1"/>
<path d="M599.517 293.942L650.147 395.388L614.517 529.888L564.517 428.888L599.517 293.942Z" fill="#B1B1B1"/>
<path d="M506.517 199.942L557.147 301.388L521.517 435.888L471.517 334.888L506.517 199.942Z" fill="#B1B1B1"/>
<path d="M201.517 570.942L289.517 232.942L506.517 199.942L477.517 311.942L599.517 293.942L576.517 383.942L680.517 368.942L645.517 503.942L201.517 570.942Z" fill="white"/>
<path d="M252.147 672.388L201.517 570.942L645.517 503.942L696.147 605.388L252.147 672.388Z" fill="#8D8D8D"/>
<path d="M440.345 434.944L364.189 446.362L371.686 417.315L390.037 414.564L402.172 367.55C405.161 355.971 405.26 347.992 402.471 343.613C399.885 339.203 394.718 337.578 386.97 338.74C377.59 340.146 369.605 344.126 363.013 350.68C356.473 357.034 351.915 364.818 349.341 374.032L336.82 422.543L355.17 419.792L347.673 448.839L271.517 460.257L279.014 431.21L297.365 428.459L317.152 351.799L297.272 354.779L304.847 325.433L364.182 316.537L358.848 337.199C372.043 320.252 388.835 310.25 409.225 307.193C422.275 305.236 432.612 307.332 440.237 313.482C441.3 314.339 442.248 315.291 443.083 316.338C448.236 322.809 449.039 332.916 445.492 346.662L429.492 408.649L447.843 405.897L440.345 434.944Z" fill="black"/>
<path d="M444.807 453.85L576.934 434.04L570.364 459.494L438.237 479.303L444.807 453.85Z" fill="black"/>
</svg>
